<?xml version="1.0" encoding="UTF-8"?>
<svg width="28px" height="16px" viewBox="0 0 28 16" version="1.1" xmlns="http://www.w3.org/2000/svg" xmlns:xlink="http://www.w3.org/1999/xlink">
    <title>Group 15</title>
    <g id="CRM" stroke="none" stroke-width="1" fill="none" fill-rule="evenodd" stroke-linecap="round" stroke-linejoin="round">
        <g id="Group-15" transform="translate(1.000000, 1.000000)" stroke="#FFFFFF">
            <path d="M5.447,4.681 L5.447,1.5 C5.447,0.671 6.119,0 6.947,0 L24.947,0 C25.775,0 26.447,0.671 26.447,1.5 L26.447,12.5 C26.447,13.327 25.775,14 24.947,14 L6.947,14 C6.119,14 5.447,13.327 5.447,12.5 L5.447,9.077" id="Stroke-1"></path>
            <polyline id="Stroke-3" points="25.947 0.4999 15.947 8.4999 5.947 0.4999"></polyline>
            <line x1="0" y1="4.0589" x2="3.297" y2="4.0589" id="Stroke-5"></line>
            <line x1="1.6486" y1="6.9999" x2="6.9426" y2="6.9999" id="Stroke-7"></line>
            <line x1="0.7465" y1="9.9483" x2="3.2975" y2="9.9483" id="Stroke-9"></line>
            <line x1="8.8407" y1="11.7395" x2="13.9227" y2="6.8805" id="Stroke-11"></line>
            <line x1="22.8591" y1="11.6566" x2="17.8221" y2="6.9996" id="Stroke-13"></line>
        </g>
    </g>
</svg>