<?xml version="1.0" encoding="utf-8"?>
<!-- Generator: Adobe Illustrator 25.3.1, SVG Export Plug-In . SVG Version: 6.00 Build 0)  -->
<svg version="1.1" id="圖層_1" xmlns="http://www.w3.org/2000/svg" xmlns:xlink="http://www.w3.org/1999/xlink" x="0px" y="0px"
	 viewBox="0 0 192 60" style="enable-background:new 0 0 192 60;" xml:space="preserve">
<style type="text/css">
	.st0{fill:#FFFFFF;}
</style>
<g>
	<g>
		<path class="st0" d="M46,34.1c-0.1-0.1-0.3-0.1-0.5,0c-0.1,0.1-0.3,0.2-0.3,0.4C45.1,34.6,45,34.8,45,35l0,0.9
			c0,0.1,0,0.2-0.1,0.2l-0.5,0.3c-0.2,0.1-0.4,0-0.4-0.2l0-0.3c0-0.1,0-0.4-0.2-0.5c-0.1-0.1-0.3-0.1-0.5,0
			c-0.1,0.1-0.3,0.2-0.3,0.4c-0.1,0.2-0.1,0.3-0.1,0.5l0,3.2c0,0.1,0,0.4,0.2,0.5c0,0,0.1,0.1,0.2,0.1c0.1,0,0.2,0,0.3-0.1
			c0.1-0.1,0.3-0.2,0.3-0.4C44,39.4,44,39.3,44,39l0-1.1c0-0.1,0-0.2,0.1-0.2l0.5-0.3c0.2-0.1,0.4,0,0.4,0.2l0,0.5
			c0,0.2,0.1,0.4,0.2,0.5c0.1,0.1,0.3,0.1,0.5,0c0.1-0.1,0.3-0.2,0.3-0.4c0.1-0.2,0.1-0.3,0.1-0.5l0-3.2
			C46.2,34.5,46.2,34.3,46,34.1z"/>
		<path class="st0" d="M37.7,42.2c-0.1-0.1-0.3,0-0.5,0.1l-0.9,0.5c-0.2,0.1-0.4,0-0.4-0.2c0-0.1,0-0.2,0.1-0.2l1.2-0.7
			c0.1-0.1,0.3-0.2,0.3-0.3c0.1-0.1,0.1-0.3,0.1-0.4c0-0.3-0.1-0.4-0.2-0.4c-0.2-0.1-0.4,0-0.5,0.1L36,41.3l0-0.3
			c0-0.1,0-0.2,0.1-0.2l1.3-0.7c0.1-0.1,0.3-0.2,0.3-0.3c0.1-0.1,0.1-0.3,0.1-0.4c0-0.3-0.1-0.4-0.2-0.4c-0.2-0.1-0.4,0-0.5,0.1
			l-1.8,1c-0.1,0.1-0.2,0.1-0.3,0.2c-0.1,0.1-0.1,0.2-0.2,0.3c0,0.1-0.1,0.2-0.1,0.4l0,3c0,0.1,0,0.4,0.2,0.5c0.1,0,0.1,0.1,0.2,0.1
			c0.2,0,0.3-0.1,0.4-0.1l1.9-1.1c0.1-0.1,0.3-0.2,0.3-0.3c0.1-0.1,0.1-0.3,0.1-0.4C37.9,42.4,37.8,42.3,37.7,42.2z"/>
		<path class="st0" d="M34,41c-0.2-0.1-0.4,0-0.5,0.1l-2.2,1.3c-0.1,0.1-0.3,0.2-0.3,0.3c-0.1,0.1-0.1,0.3-0.1,0.4
			c0,0.3,0.1,0.4,0.2,0.4c0.2,0.1,0.4,0,0.5-0.1l0.4-0.2l0,2.5c0,0.1,0,0.4,0.2,0.5c0,0,0.1,0.1,0.2,0.1c0.1,0,0.2,0,0.3-0.1
			c0.1-0.1,0.3-0.2,0.3-0.4c0.1-0.2,0.1-0.3,0.1-0.5l0-2.6c0-0.1,0-0.2,0.1-0.2l0.5-0.3c0.2-0.1,0.3-0.2,0.3-0.3
			c0.1-0.1,0.1-0.3,0.1-0.4C34.2,41.1,34.1,41,34,41z"/>
		<path class="st0" d="M41.8,38.9c-0.1,0-0.2-0.1-0.4,0c-0.1,0.1-0.2,0.2-0.3,0.3C41,39.4,41,39.5,41,39.6c-0.1,0.2-0.2,0.4-0.3,0.6
			c-0.1,0.2-0.3,0.3-0.4,0.4c-0.1,0.1-0.2,0.1-0.3,0.1c0,0-0.1,0-0.1-0.1c0-0.1-0.1-0.3-0.1-0.6c0-0.4,0.1-0.8,0.2-1.1
			c0.1-0.3,0.3-0.5,0.6-0.7c0.2-0.1,0.3-0.1,0.3-0.1c0.1,0,0.1,0.1,0.2,0.2c0.1,0.1,0.2,0.2,0.2,0.3c0.1,0.1,0.3,0.1,0.4,0
			c0.1-0.1,0.2-0.2,0.3-0.3C42,38,42,37.9,42,37.7c0-0.2-0.1-0.4-0.2-0.6c-0.2-0.2-0.4-0.3-0.7-0.3c-0.3,0-0.5,0.1-0.9,0.3
			c-0.2,0.1-0.5,0.3-0.7,0.6c-0.2,0.2-0.4,0.5-0.6,0.8c-0.2,0.3-0.3,0.6-0.4,0.9c-0.1,0.3-0.1,0.7-0.1,1c0,0.2,0,0.4,0.1,0.6
			c0,0.2,0.1,0.3,0.2,0.5c0.1,0.1,0.2,0.3,0.3,0.4c0.1,0.1,0.3,0.2,0.4,0.2c0,0,0.1,0,0.1,0c0.1,0,0.2,0,0.4-0.1
			c0.2,0,0.3-0.1,0.5-0.2c0.3-0.1,0.5-0.3,0.7-0.5c0.2-0.2,0.3-0.4,0.5-0.7c0.1-0.2,0.2-0.4,0.3-0.6c0.1-0.2,0.1-0.4,0.1-0.5
			C42,39.1,41.9,39,41.8,38.9z"/>
		<path class="st0" d="M48.1,36.2c-0.1,0-0.3-0.1-0.5,0c-0.1,0.1-0.2,0.2-0.3,0.4c-0.1,0.2-0.1,0.3-0.1,0.5c0,0.3,0.1,0.4,0.2,0.5
			c0,0,0.1,0,0.2,0c0.1,0,0.2,0,0.3-0.1c0.1-0.1,0.2-0.2,0.3-0.3c0.1-0.2,0.1-0.3,0.1-0.5C48.3,36.4,48.2,36.3,48.1,36.2z"/>
		<path class="st0" d="M50.6,12L28.5,0.8c-0.7-0.4-1.5-0.6-2.3-0.6c-0.8,0-1.6,0.2-2.3,0.6l-21,10.7C1.1,12.4,0,14.2,0,16.1v26.5
			c0,1.9,1,3.6,2.6,4.5l20.9,11.9c0.8,0.4,1.6,0.7,2.5,0.7h0.1c0.9,0,1.7-0.2,2.5-0.7l22.3-12.8c1.6-0.9,2.6-2.7,2.6-4.5V16.7
			C53.5,14.7,52.4,12.9,50.6,12z M3.4,14.5L24.8,3.6c0.6-0.3,1.2-0.3,1.8,0l21.3,10.8c0.7,0.4,0.7,1.4,0,1.8
			c-0.8,0.4-1.5,0.8-2.2,1.1c-0.6,0.3-1.4,0.3-2,0L26.9,8.9c-0.4-0.2-0.9-0.2-1.3,0l-2.5,1.3c-0.5,0.3-0.5,1.1,0,1.4l11.1,5.7
			c0.7,0.4,0.7,1.4,0,1.8c-0.7,0.4-1.4,0.7-2,1c-0.4,0.2-0.9,0.2-1.3,0L18,13.4c-0.4-0.2-0.9-0.2-1.4,0l-2.4,1.3
			c-0.5,0.3-0.5,1.1,0,1.4l15.2,7.8c0.7,0.4,0.7,1.5,0,1.8c-0.8,0.4-1.8,0.9-2.9,1.4c-0.6,0.3-1.4,0.3-2,0L3.4,16.3
			C2.7,15.9,2.7,14.9,3.4,14.5z M2.8,36.7V23.8c0-1.1,1.2-1.9,2.2-1.4l8.9,4.8l2.5,1.4c1,0.6,1.1,2.1,0.1,2.7l-2.6,1.5L5.1,38
			C4.1,38.6,2.8,37.9,2.8,36.7z M27.3,33.9c-1.6,1-2.8,3.1-2.7,5.1l0.3,13.9l0,0c0,1,0.3,1.8,0.8,2.5c0.2,0.3,0,0.7-0.4,0.6
			c-1.2-0.3-3.2-0.5-3.5-3.1l0-2.5c0-1.4-0.9-2.7-2.1-3.3l-6.4-2.9l-2.5-1.3c-1-0.5-1.1-2-0.1-2.6c0.9-0.5,1.7-1,2.6-1.6
			C22.9,33.1,42,22.5,48,19.2c0.8-0.5,1.8,0.2,1.8,1.1c0,0.8-0.4,1.5-1.1,1.9L27.4,33.8L27.3,33.9z M50.1,41.4
			c0,0.9-0.5,1.7-1.2,2.1L31.3,53.6c-1.3,0.7-2.8-0.2-2.8-1.7L28,39c0-1.2,0.7-2.4,1.7-3l17.9-10.4c1.1-0.6,2.5,0.2,2.5,1.5V41.4z"
			/>
	</g>
	<g>
		<path class="st0" d="M78.2,50.5v2.7h-9.6V37.6H78v2.7h-5.8V44h5.2v2.6h-5.2v3.9H78.2z"/>
		<path class="st0" d="M100.7,40.6l-6.8,9.9v0.1c0.6-0.2,1.3-0.3,2.5-0.3h4.3v3H90v-3l6.6-9.8v-0.1c-0.6,0.1-1.3,0.2-2.5,0.2H90v-3
			h10.6V40.6z"/>
		<path class="st0" d="M139.4,40.5h-4.2v12.7h-3.6V40.5h-4.2v-2.9h12V40.5z"/>
		<path class="st0" d="M155.6,53.2h-3.7V37.6h3.7V53.2z"/>
		<path class="st0" d="M180.1,40.5h-4.2v12.7h-3.6V40.5h-4.2v-2.9h12V40.5z"/>
	</g>
	<g>
		<path class="st0" d="M71.5,30.4c0.8-1.3,1.4-2.8,1.7-4.2l0.3-0.2l2.9,1l0.1,0.4c-0.4,1.8-1,3.3-1.8,4.8l-0.3,0.1l-3-1.2v2.1h-4.1
			l0.2-9.3v-3.4c-0.5,1-0.7,1.5-1.3,2.4c-0.1,0.2-0.3,0.3-0.4,0.3c-0.1,0-0.2-0.1-0.3-0.3l-1-4.1c1.6-3.2,3.6-8.8,4.4-14.1l0.2-0.1
			l3.5,0.8l0.1,0.3c-0.5,2.1-0.9,4-1.4,5.7V30.4z M88.2,10c-0.2,0.7-0.5,1.3-0.8,2h1.6l4-0.1l0.2,0.2v2.8l-0.2,0.1l-4-0.1H75.9
			l-3.7,0.1L72,14.8v-2.7l0.2-0.2l3.7,0.1h1.2c-0.1-0.7-0.3-1.3-0.5-2L73.4,10l-0.2-0.2V7.2L73.4,7l4,0.1h2.8V4.8l0.2-0.2h3.8
			l0.2,0.2v2.3h3.1l4-0.1l0.2,0.2v2.8L91.6,10L88.2,10z M83.7,24.8c0.8,0.5,1.5,1.2,2.2,2l-0.1,0.3l-2.6,1.7l-0.3,0
			c-0.7-0.9-1.4-1.6-2.2-2.3v2.4c0,0.7,0,0.8,1.6,0.8c2.5,0,2.6-0.2,2.8-2l2.9,1c0.4,0.2,0.6,0.3,0.5,0.7c-0.1,1.2-0.6,2.2-1,2.6
			c-0.7,0.6-1.6,0.9-6,0.9c-4.1,0-4.7-0.4-4.7-2.4l0.1-2.4v-1.9l0.2-0.2h3.3l0.1,0.1l1.9-1.1h-4l-4,0.1l-0.2-0.2l0.1-3.1v-2.8
			l-0.1-2.9l0.2-0.2l3.7,0.1h8l3.7-0.1l0.2,0.2l-0.1,2.9v2.8l0.1,3L90,24.9l-3.9-0.1H83.7z M86.1,19.2v-1.1h-7.8v1.1H86.1z
			 M78.3,22.4h7.8v-1.1h-7.8V22.4z M80.4,10c0.2,0.7,0.4,1.3,0.6,2h2.5c0.2-0.7,0.4-1.3,0.5-2H80.4z M90.1,25.5l0.3,0
			c1.3,1.3,2.2,2.5,3.1,4l-0.1,0.3l-2.9,1.7l-0.3-0.1c-0.7-1.7-1.7-3.2-2.8-4.3l0.1-0.3L90.1,25.5z"/>
		<path class="st0" d="M108.9,7.7c0.7-1.1,1.2-2.3,1.5-3.1l0.2-0.2l3.9,0.8l0.2,0.3c-0.3,0.6-0.8,1.4-1.4,2.2h4.2l4.3-0.1l0.2,0.2
			v2.8l-0.2,0.1l-4.3-0.1h-4.8v1.1h3.4l4.3-0.1l0.2,0.1v2.5l-0.2,0.1l-4.3-0.1h-3.4v1.1h3.4l4.3-0.1l0.2,0.1v2.5l-0.2,0.1l-4.3-0.1
			h-3.4V19h5.1l4.3-0.1l0.2,0.1v2.8l-0.2,0.1l-4.3-0.1h-6.3V23h6.8l5-0.1l0.2,0.2v3.1l-0.2,0.2l-5-0.1h-4c2.8,1.5,6,2.4,9.7,3.2
			l-2.6,3.1c-0.1,0.1-0.2,0.2-0.4,0.2c-0.1,0-0.2,0-0.4-0.1c-4-1.4-6.7-2.6-9.2-4.7l0.2,5.2H107l0.2-5c-2.8,2-6.1,3.7-9.2,4.6
			c-0.1,0.1-0.3,0.1-0.4,0.1c-0.2,0-0.2-0.1-0.4-0.2L94.9,30c3.4-0.9,6.5-2,9.3-3.6h-3.6l-5,0.1l-0.2-0.2v-3.1l0.3-0.1l4.9,0.1h6.6
			v-1.2h-4l-4.2,0.1l-0.2-0.2l0.1-3.8v-4.2c-0.3,0.3-0.7,0.5-1,0.8c-0.2,0.2-0.4,0.2-0.5,0.2c-0.2,0-0.3-0.1-0.5-0.2l-2.2-2.1
			c3.1-2.3,5.5-4.6,7.3-8l0.3,0l3.7,1.1l0,0.3c-0.4,0.6-0.8,1.3-1.3,1.9H108.9z M103,10.6v1.1h5.5v-1.1H103z M103,14.2v1.1h5.5v-1.1
			H103z M103,17.9V19h5.5v-1.1H103z"/>
		<path class="st0" d="M138.7,13.5l-0.1,0.2l-2.5-0.1h-2.4l-2.4,0.1l-0.2-0.1v-0.8c-0.8,0.6-1.7,1.2-2.5,1.7l3,0.1h6.9l3.2-0.1
			l0.2,0.2l-0.1,3.1v2.7l0.1,3.4l-0.2,0.2l-3-0.1h-7l-0.2,1l3.6,0.1h3.5l3.9-0.1l0.3,0.2l-0.1,2.6v1.6l0.1,3.6h-3.9v-1h-4.3v1.1
			h-3.7l0.1-3.5v-2.3c-0.6,1.9-1.4,3.5-2.4,4.8c-0.2,0.2-0.3,0.4-0.4,0.4c-0.1,0-0.2-0.1-0.4-0.3l-2.4-2.3c1.2-1.5,1.9-3,2.4-4.9
			c0.4-1.5,0.5-3.2,0.5-5.4v-2l-0.1-2.8c-0.1,0-0.2,0.1-0.3,0.1c-0.2,0-0.4-0.1-0.5-0.3l-2-2.5c3.8-2,6.2-4.4,8.2-7.6l0.3,0l3.6,1.1
			l0,0.3c-0.1,0.2-0.3,0.5-0.5,0.7c2.1,0.9,4,2.1,6.3,3.8l0,0.2V8.5l0.2-0.2h3.6l0.2,0.2v8.6l0.1,8.4H143l0.1-8.4v-6.6l-2.4,2.8
			h-0.3c-0.6-0.6-1.2-1.2-1.8-1.7V13.5z M137.9,21.5v-1.1h-6c0,0.4,0,0.8-0.1,1.1H137.9z M131.9,18h6v-1h-6V18z M137.7,10.9
			c-0.9-0.7-1.9-1.3-2.9-1.8c-0.6,0.6-1.2,1.3-1.8,1.9l0.6,0h2.4L137.7,10.9z M138.7,27.9h-4.3v1.4h4.3V27.9z M153.1,28.3
			c0,3.5-0.8,4.5-5.7,4.5c-0.6,0-0.6-0.1-0.8-0.4l-1.9-3.7c1.4,0,2.7-0.1,3.2-0.1c0.6-0.1,0.8-0.2,0.8-1V5.5l0.2-0.2h3.8l0.2,0.2
			v16.3L153.1,28.3z"/>
		<path class="st0" d="M175.8,27.8c0,0.9,0.1,1,1.8,1c1.6,0,2.2-0.1,2.5-0.4c0.3-0.3,0.5-1.3,0.6-2.9l3.5,1.4
			c0.4,0.1,0.5,0.2,0.5,0.7c-0.1,2.1-0.6,3.6-1.6,4.3c-0.8,0.7-1.8,0.8-6,0.8c-4.5,0-5.8-0.5-5.8-2.9l0.1-3.7v-2.5h-2.2
			c-0.6,5.9-3.9,8.7-10.2,9.5c-0.5,0.1-0.7,0.1-0.9-0.3l-2.2-3.1c6.1-0.8,8.4-2.3,9.1-6.1l-3.8,0.1l-0.2-0.2l0.1-4.4V9.4l-0.1-3.7
			l0.2-0.2l4.3,0.1h10l4.1-0.1l0.2,0.2L180,9.4v9.7l0.1,4.4l-0.3,0.2l-3.8-0.1h-0.2V27.8z M175.7,9h-10.4v1.6h10.4V9z M165.4,13.7
			v1.6h10.4v-1.6H165.4z M165.4,20.2h10.4v-1.7h-10.4V20.2z"/>
	</g>
</g>
</svg>
