<?xml version="1.0" encoding="UTF-8"?>
<svg width="52px" height="52px" viewBox="0 0 52 52" version="1.1" xmlns="http://www.w3.org/2000/svg" xmlns:xlink="http://www.w3.org/1999/xlink">
    <title>open bim</title>
    <g id="Page-1" stroke="none" stroke-width="1" fill="none" fill-rule="evenodd" stroke-linecap="round" stroke-linejoin="round">
        <g id="Artboard" transform="translate(-466.000000, -2634.000000)" stroke-width="2">
            <g id="open-bim" transform="translate(467.000000, 2635.000000)">
                <path d="M47.5938254,33.3618571 C48.2126994,32.1796459 48.5602352,30.8431552 48.5602352,29.4277308 L48.5602352,21.7227275 C48.5602352,19.4246811 46.629274,17.558976 44.2467021,17.558976 L4.31353308,17.558976 C1.93096117,17.558976 0,19.4246811 0,21.7227275 L0,29.4277308 C0,34.2552428 4.0552043,38.1696356 9.05637515,38.1696356 L13.3736252,38.1696356 C18.3766545,38.1696356 22.4300003,34.2552428 22.4300003,29.4277308 L22.4300003,29.4277308 C22.4300003,28.8321404 22.9317901,28.3477746 23.5488056,28.3477746 L25.8607552,28.3477746 C26.4777707,28.3477746 26.977702,28.8321404 26.977702,29.4277308 L26.977702,29.4277308 C26.977702,30.7409002 27.2787758,31.9858996 27.8158766,33.1035287" id="Stroke-1" stroke="#000000"></path>
                <path d="M0.98109182,19.1055379 L12.2100306,1.29522989 C12.7173957,0.491541539 13.6224757,0 14.5963195,0 L17.8821129,0" id="Stroke-3" stroke="#000000"></path>
                <path d="M47.5932678,19.1055379 L37.033382,1.35443015 C36.5353093,0.5166568 35.6116445,0 34.611782,0 L30.2926735,0" id="Stroke-5" stroke="#000000"></path>
                <path d="M28.7512498,39.0623038 L28.7512498,39.0246309 C28.7512498,36.9095671 30.5279571,35.1927596 32.720964,35.1927596 L32.720964,35.1927596 C34.9139709,35.1927596 36.6906782,36.9095671 36.6906782,39.0246309 L36.6906782,39.0246309 C36.6906782,40.3162729 35.7837398,41.4428718 34.4865204,41.7604004 L32.2191743,42.318318 L34.5998877,43.0000179 C35.8394942,43.3570134 36.6906782,44.4567031 36.6906782,45.7070843 L36.6906782,46.1681287 C36.6906782,48.2831925 34.9139709,50 32.720964,50 L32.720964,50 C30.5279571,50 28.7512498,48.2831925 28.7512498,46.1681287 L28.7512498,45.5348654" id="Stroke-7" stroke="#00A0F1"></path>
                <path d="M42.0345529,35.1932978 L42.0345529,49.9987442 L42.3300513,49.9987442 C46.5655282,49.9987442 50,46.6853237 50,42.596918 L50,42.596918 C50,38.5085123 46.5655282,35.1932978 42.3300513,35.1932978 L42.0345529,35.1932978 Z" id="Stroke-9" stroke="#00A0F1"></path>
            </g>
        </g>
    </g>
</svg>