<?xml version="1.0" encoding="UTF-8"?>
<svg width="52px" height="52px" viewBox="0 0 52 52" version="1.1" xmlns="http://www.w3.org/2000/svg" xmlns:xlink="http://www.w3.org/1999/xlink">
    <title>平面定位</title>
    <g id="Page-1" stroke="none" stroke-width="1" fill="none" fill-rule="evenodd" stroke-linejoin="round">
        <g id="Artboard" transform="translate(-621.000000, -2634.000000)" stroke-width="2">
            <g id="平面定位" transform="translate(622.000000, 2635.000000)">
                <path d="M30.4347826,5.95237602 C30.4347826,9.24046854 28.0021739,11.904752 25,11.904752 C21.9978261,11.904752 19.5652174,9.24046854 19.5652174,5.95237602 C19.5652174,2.66428351 21.9978261,0 25,0 C28.0021739,0 30.4347826,2.66428351 30.4347826,5.95237602 Z" id="Stroke-1" stroke="#000000"></path>
                <path d="M43.4782609,8.33332643 C43.4782609,10.3047534 42.0173913,11.904752 40.2173913,11.904752 C38.4173913,11.904752 36.9565217,10.3047534 36.9565217,8.33332643 C36.9565217,6.36189949 38.4173913,4.76190082 40.2173913,4.76190082 C42.0173913,4.76190082 43.4782609,6.36189949 43.4782609,8.33332643 Z" id="Stroke-3" stroke="#000000"></path>
                <path d="M13.0434783,8.33332643 C13.0434783,10.3047534 11.5826087,11.904752 9.7826087,11.904752 C7.9826087,11.904752 6.52173913,10.3047534 6.52173913,8.33332643 C6.52173913,6.36189949 7.9826087,4.76190082 9.7826087,4.76190082 C11.5826087,4.76190082 13.0434783,6.36189949 13.0434783,8.33332643 Z" id="Stroke-5" stroke="#000000"></path>
                <path d="M35.8695652,40.9480613 C44.2347826,41.7194893 50,43.3528212 50,45.238534 C50,47.8671032 38.8086957,50.0004348 25,50.0004348 C11.1934783,50.0004348 0,47.8671032 0,45.238534 C0,43.3575831 5.72826087,41.731394 14.0391304,40.9575851" id="Stroke-7" stroke="#00A0F1" stroke-linecap="round"></path>
                <path d="M30.4347826,38.0952065 L19.5652174,38.0952065 L19.5652174,22.6190289 C19.5652174,19.3309364 21.9978261,16.6666529 25,16.6666529 C28.0021739,16.6666529 30.4347826,19.3309364 30.4347826,22.6190289 L30.4347826,38.0952065 Z" id="Stroke-9" stroke="#000000"></path>
                <path d="M43.4782609,33.3333057 L36.9565217,33.3333057 L36.9565217,20.2380785 C36.9565217,18.2666515 38.4173913,16.6666529 40.2173913,16.6666529 C42.0173913,16.6666529 43.4782609,18.2666515 43.4782609,20.2380785 L43.4782609,33.3333057 Z" id="Stroke-11" stroke="#000000"></path>
                <path d="M13.0434783,33.3333057 L6.52173913,33.3333057 L6.52173913,20.2380785 C6.52173913,18.2666515 7.9826087,16.6666529 9.7826087,16.6666529 C11.5826087,16.6666529 13.0434783,18.2666515 13.0434783,20.2380785 L13.0434783,33.3333057 Z" id="Stroke-13" stroke="#000000"></path>
            </g>
        </g>
    </g>
</svg>