<?xml version="1.0" encoding="UTF-8"?>
<svg width="126px" height="125px" viewBox="0 0 126 125" version="1.1" xmlns="http://www.w3.org/2000/svg" xmlns:xlink="http://www.w3.org/1999/xlink">
    <title>中壽LOGO</title>
    <g id="廠商logo" stroke="none" stroke-width="1" fill="none" fill-rule="evenodd">
        <g id="中壽LOGO" transform="translate(0.500000, 0.000000)">
            <rect id="Rectangle" x="0.5" y="0" width="125" height="125"></rect>
            <path d="M14.9757987,80.0005272 C15.368403,79.9902612 15.4682931,80.1786552 15.456885,80.5318591 C15.4382426,81.1081392 15.4719102,81.6869165 15.443251,82.2626417 C15.4204348,82.7268288 15.5985119,82.8785983 16.061234,82.8744364 C18.0643225,82.8561242 20.0682458,82.8397542 22.0704996,82.8844249 C22.7249327,82.8988527 23.4030168,83.0201018 24.0209998,83.2337444 C25.0271351,83.5816767 25.5482887,84.3824203 25.5569143,85.4337084 C25.5816781,88.496289 25.5594185,91.559702 25.5761348,94.6225601 C25.5791739,95.1722043 25.256131,95.1505625 24.8779955,95.1500076 L22.0065135,95.1501001 C20.0922058,95.1517649 18.1779394,95.1530597 16.2637966,95.1325278 C15.6305101,95.1255913 15.4065226,95.295673 15.4351819,95.9482541 C15.485266,97.1002594 15.4346254,98.2564266 15.4560503,99.4100967 C15.4638411,99.8343299 15.3319528,100.016897 14.8892644,99.9977526 C14.311627,99.9725039 13.7309289,99.9666773 13.1538479,99.99803 C12.6649708,100.024111 12.5547856,99.804087 12.563133,99.3643161 C12.5851144,98.2106461 12.5305783,97.0542014 12.5853926,95.902751 C12.6162778,95.2546093 12.3697524,95.1305856 11.7837676,95.1358573 C8.97933238,95.1608285 6.17461888,95.147788 3.36990538,95.1450134 C3.10918946,95.1447359 2.84819528,95.1233717 2.51513556,95.1083889 L2.51513556,95.1083889 L2.51513556,94.3356686 C2.51457907,90.7844846 2.52876958,87.233023 2.5,83.6821164 C2.49510189,83.0744836 2.65926667,82.886922 3.2755802,82.8908064 C6.12397822,82.9082863 8.97293274,82.866945 11.8213308,82.8794307 C12.3842212,82.8819278 12.6396504,82.754852 12.5812189,82.1427799 C12.5286305,81.5928582 12.5322477,81.0301735 12.5901228,80.4816392 C12.608487,80.3093378 12.8722636,80.0427008 13.0414368,80.028273 C13.6822359,79.9738912 14.3308259,80.0174521 14.9757987,80.0005272 Z M99.0136964,91.6404423 C106.090868,91.6401648 113.168039,91.6340607 120.245211,91.6507082 C120.766921,91.651818 121.304213,91.7636336 121.805333,91.9170678 C122.255255,92.0552419 122.527658,92.4123302 122.497885,93.056865 C121.438327,93.056865 120.382942,93.0640789 119.328114,93.0527031 C118.973351,93.0488187 118.719035,93.0898825 118.725713,93.5399193 C118.731556,93.9153198 118.826159,94.1192514 119.256048,94.102049 C119.766072,94.0815171 120.282774,94.0787426 120.788624,94.1364538 C121.606944,94.2296797 121.972836,94.6136815 122.093317,95.5007145 C121.225469,95.5007145 120.368473,95.5295701 119.51426,95.490726 C118.921597,95.46409 118.670898,95.6399983 118.712357,96.2701053 C118.757433,96.9540391 118.739347,97.6468515 118.687593,98.3310628 C118.623318,99.1850783 118.142232,99.6123635 117.30054,99.6159705 C116.47749,99.6193 115.652492,99.6270688 114.83139,99.5815657 C114.000828,99.5357851 113.669159,99.2114368 113.516402,98.3052592 L113.516402,98.3052592 L115.025605,98.3049818 C116.051218,98.3044268 116.055948,98.2997101 116.043427,97.2561908 C116.040088,96.967912 116.029515,96.6793557 116.027567,96.391077 C116.021724,95.4996046 116.022559,95.5018243 115.093776,95.4965526 C113.536158,95.4873965 111.97854,95.4760207 110.421201,95.4624253 C110.289034,95.4613154 110.157146,95.4371766 109.944288,95.4158123 C109.92815,95.2082738 109.92175,94.9960185 109.893369,94.7868152 C109.82353,94.2751828 110.022197,94.0792975 110.554759,94.0876212 C112.179155,94.1131473 113.80383,94.1034363 115.428505,94.0937253 C115.967744,94.0903958 116.207314,93.7982326 115.985552,93.3484733 C115.900687,93.1767268 115.530899,93.0629691 115.290217,93.0615818 C112.241482,93.0449343 109.192469,93.0540904 106.143456,93.0557552 C103.650656,93.0571425 101.158134,93.056865 98.6653332,93.0574199 L97.9174096,93.0574199 C97.7282027,91.6398874 97.7282027,91.6404423 99.0136964,91.6404423 Z M79.2387411,80.2054021 C79.2532099,80.4498425 79.2943902,80.707046 79.2799215,80.9609201 C79.0000066,85.9054978 81.0801691,89.7863019 84.7997534,92.8574837 C86.5426825,94.2963806 88.4341947,95.556317 90.2600409,96.895329 C90.4709509,97.0501505 90.6924342,97.1908217 90.9481418,97.3647878 C90.3707826,98.128352 89.8265346,98.8480779 89.24528,99.6166364 C84.5217863,96.6475591 80.5008622,93.0888836 78.0033316,87.9542472 C77.4857952,88.8856735 77.061471,89.7541168 76.5433781,90.5631841 C74.210847,94.2048194 71.0366236,96.9793987 67.3952262,99.2531665 C67.2458085,99.3463924 66.8673947,99.3017216 66.7477492,99.1765881 C66.2583156,98.6655106 65.82787,98.0981091 65.3286978,97.4943607 C65.9500197,97.0937114 66.5351698,96.7069351 67.1297801,96.334864 C69.294251,94.9808693 71.2177614,93.3391507 72.8922421,91.4219164 C75.237016,88.7375109 76.623791,85.6688262 76.5030325,82.0307978 C76.485503,81.4991884 76.5052585,80.9659143 76.5130493,80.43375 C76.5141623,80.3715994 76.5483865,80.3102812 76.5803847,80.2054021 L76.5803847,80.2054021 Z M45.1976162,80.256265 L54.4075385,80.2577584 C56.2564791,80.2585908 57.0978931,81.1073346 57.0990061,82.9377246 C57.1015103,88.1961073 57.10791,93.4542125 57.1130421,98.7125952 L57.1130421,98.7125952 L57.1130421,99.571605 L57.1130421,99.571605 L56.3207538,99.571605 C49.4901078,99.5704951 42.6591835,99.5596743 35.8288158,99.5841142 C35.1888514,99.5865877 35.0569631,99.3915348 35.0588897,98.7974973 C35.0792227,92.9187187 35.0714318,87.0399401 35.0722666,81.1611614 C35.0722666,80.2616428 35.073936,80.2577584 35.9876939,80.2577584 C42.1274566,80.2562731 48.2677758,80.2552613 54.4075385,80.2577584 Z M100.52852,93.9138771 C102.616195,93.9266401 104.704705,93.894455 106.791824,93.9355188 C107.307412,93.9457847 107.849713,94.1031034 108.324121,94.3159136 C108.876438,94.5636835 109.199481,95.0503447 109.199203,95.695157 C109.198646,96.64767 109.193081,97.5999057 109.203655,98.5521413 C109.207272,98.8856457 109.139658,99.1139936 108.739541,99.1120637 C105.919246,99.0976236 103.098673,99.0890224 100.278377,99.0757044 C100.215216,99.0754269 100.152054,99.0415771 99.9867762,98.9941318 L99.9867762,98.9941318 L99.9867762,96.7816822 C99.986498,96.0064648 99.9984625,95.2312473 99.9817678,94.4563073 C99.9731422,94.0587101 100.123673,93.9113799 100.52852,93.9138771 Z M110.69722,96.8123691 C111.885328,95.6018201 112.713665,95.6581441 114.184191,96.9827282 C114.177792,97.003815 114.176401,97.0285088 114.16388,97.0448788 C113.118512,98.4002608 113.109051,98.4019256 111.6836,97.465505 C111.371131,97.2604636 111.060052,97.0529251 110.69722,96.8123691 Z M106.109844,95.3488895 C105.512451,95.3203113 104.912833,95.3433403 104.314048,95.3433403 C104.092287,95.3433403 103.870525,95.3380686 103.649042,95.3441727 C101.581401,95.401329 101.918077,94.9207719 101.877175,97.2003662 C101.868828,97.6548423 102.074173,97.7555596 102.480968,97.7505653 C103.8555,97.7330855 105.230589,97.726149 106.604843,97.7497329 C107.04614,97.7572243 107.20947,97.5929692 107.19361,97.1765049 C107.185263,96.9562033 107.2142,96.7347918 107.211139,96.5142128 C107.199731,95.6801742 106.939294,95.3888434 106.109844,95.3488895 Z M41.9542488,82.1286919 L38.0144333,82.1305994 C37.8433124,82.1305994 37.6719132,82.1572354 37.4660116,82.1744378 L37.4660116,82.1744378 L37.4660116,97.6596424 C37.6532708,97.6790644 37.803245,97.708475 37.9532193,97.7087524 C43.3394935,97.7123594 48.7257677,97.7057004 54.1117636,97.7254147 C54.680219,97.7276195 54.7667533,97.4798496 54.7648372,97.005674 C54.7478326,92.6112953 54.7492238,88.2169166 54.7355898,83.8225379 C54.7316944,82.5958964 53.4690168,81.8062511 52.1025537,82.3536756 C52.5279909,82.8697474 52.896666,83.3589057 53.3104169,83.8064453 C53.7002387,84.2284589 53.9784841,84.6615707 53.8382484,85.3321865 L53.8382484,85.3321865 L48.7580442,85.3321865 C48.906349,87.2782764 49.2836497,89.0861923 49.9839933,91.0078659 C50.1659658,90.6690898 50.2733685,90.5078867 50.3437646,90.3319784 C50.7808881,89.2412913 51.1963085,88.1417255 51.6534657,87.0593621 C51.736661,86.8620895 51.9934815,86.5796374 52.1420646,86.5957299 C52.7077374,86.6567707 53.261724,86.8240778 53.8560561,86.9600322 C53.7881643,87.2158484 53.7480969,87.4084042 53.6863265,87.5937461 C53.0889336,89.3891764 52.3860858,91.1374388 51.2678175,92.6834344 C51.013223,93.0355285 51.0048757,93.2866279 51.3117803,93.5968259 C51.7795108,94.0693367 52.2021656,94.5867958 52.6735132,95.0556997 C53.0889336,95.4685571 53.545256,95.8409056 53.9929529,96.2396127 C52.6974423,97.2523341 51.6737776,97.1441255 50.7010317,95.9424552 C50.3885621,95.5565112 50.093622,95.1569718 49.7906128,94.7635365 L49.7906128,94.7635365 L49.9227793,95.0629136 C49.1047379,95.7493445 48.3022782,96.4554749 47.4580817,97.1086109 C47.2335377,97.2822996 46.8217345,97.4385084 46.6002512,97.3483346 C46.1060874,97.1469001 45.6775895,96.7848175 45.2120849,96.4818334 C45.7132049,95.9588252 46.1469894,95.5062914 46.579661,95.0545898 C46.5788263,95.0493181 46.5774351,95.0440464 46.5763221,95.0390522 C46.5832782,95.0382198 46.5899561,95.0373875 46.596634,95.0368325 L46.596634,95.0368325 L46.5877301,95.0465436 L46.5877301,95.0465436 L46.5828944,95.0508455 L47.4681681,94.2206207 L47.4681681,94.2206207 L48.3545883,93.3854029 C48.6578758,93.0987889 48.6461895,92.7869262 48.4750686,92.4212366 C47.5212434,90.3863602 47.0727119,88.2196912 46.8782183,85.9986405 C46.8309166,85.4570426 46.6456052,85.2952846 46.1038614,85.3016661 C43.7894163,85.3294119 41.4744147,85.3158165 39.159413,85.3069378 C38.9490595,85.3061055 38.5650809,85.2542208 38.556177,85.187076 C38.4924589,84.7098484 38.4490526,84.2120888 38.5330827,83.7451271 C38.5547858,83.6249879 39.0547928,83.5292649 39.3360989,83.5267678 C41.5617837,83.5084555 43.7877468,83.5198313 46.0134317,83.5067908 C46.2118206,83.505681 46.5073172,83.4568484 46.5907908,83.3250558 C46.9285807,82.7917817 46.5251249,82.1308769 45.8940644,82.130322 C43.2674279,82.1281023 40.6410697,82.1281023 38.0144333,82.1305994 Z M45.6563872,93.2639873 C46.0481567,93.2118253 46.2362506,93.286184 46.298021,93.6904402 C46.3673041,94.143529 46.4808283,94.5899588 46.5762664,95.0388857 C44.1560881,95.3052453 41.7359097,95.5704951 39.3157313,95.8385195 C38.9734895,95.8765312 38.7687009,95.7649931 38.7141648,95.3976388 C38.6501683,94.9648045 38.5530607,94.5366869 38.4556748,94.0319909 C39.4209081,93.9459789 40.3235361,93.8796665 41.2231034,93.7828337 C42.7025342,93.6235728 44.1816866,93.4601501 45.6563872,93.2639873 Z M5.7603115,85.1642967 C5.3170666,85.1601348 5.17571795,85.3155113 5.18350882,85.7422416 C5.20298599,86.8273795 5.18990846,87.9130724 5.18990846,88.9984879 L5.18990846,88.9984879 C5.18601303,90.1063774 5.19547337,91.2139894 5.18100461,92.3216015 C5.17571795,92.7469445 5.33793501,92.9023209 5.77144132,92.8989914 C7.83741332,92.8831763 9.90366356,92.8820665 11.9693573,92.8998238 C12.4340271,92.9039857 12.5851144,92.7444474 12.5806624,92.2833123 C12.5611853,90.1124814 12.5589593,87.9410957 12.5776017,85.7702648 C12.5817754,85.2983089 12.4151064,85.1623545 11.9585057,85.1662389 C9.89253374,85.1842737 7.8262835,85.1837188 5.7603115,85.1642967 Z M16.0250621,85.165684 C15.5954512,85.1609672 15.4360166,85.3019158 15.4449204,85.7389121 C15.4677366,86.8473565 15.4527113,87.9563559 15.4510418,89.0653552 C15.4510418,90.1296838 15.4669018,91.1945674 15.4435292,92.2586185 C15.4337906,92.7044934 15.5726351,92.9023209 16.0423133,92.8987624 C18.1547523,92.882344 20.2674695,92.8776272 22.3799085,92.8881706 C22.7950506,92.8903902 22.9158091,92.7253028 22.9128048,92.3363068 C22.8991144,90.5844374 22.9219305,88.8320131 22.8974449,87.0804212 C22.8807502,85.8798607 22.17985,85.1964818 20.9622482,85.1806667 C19.316705,85.1595799 17.6706053,85.1839962 16.0250621,85.165684 Z M42.5030776,86.4309764 L44.1686647,86.4382725 C45.7204393,86.4515905 46.3896194,87.1394087 46.3929584,88.6854043 C46.3934592,88.9326748 46.393782,89.1799564 46.3939779,89.4279284 L46.3940402,90.9294774 C46.3938265,91.4363775 46.3935149,91.9514726 46.3935149,92.4801964 L46.3935149,92.4801964 L38.515275,92.4801964 L38.515275,86.4740646 C38.7423232,86.4610241 38.9571287,86.4382725 39.1716558,86.4377176 C40.837511,86.4343881 42.5030879,86.4238447 44.1686647,86.4382725 Z M43.4953109,88.0178405 C43.295438,88.0231122 43.0954723,88.0253627 42.8954654,88.0260204 L41.6953415,88.0222799 C40.6021154,88.0220024 40.6021154,88.0220024 40.597107,89.0954871 C40.5968287,89.1542187 40.5965594,89.2110557 40.5963599,89.2660587 L40.596484,89.5745526 C40.6042098,90.7243689 40.7219954,90.8875237 41.788959,90.9008891 L42.07596,90.9015941 C42.1785423,90.9011118 42.2882016,90.9000735 42.4054237,90.8989637 L42.4054237,90.8989637 L43.2498263,90.8954698 L43.2498263,90.8954698 L43.6719967,90.9017383 C44.0698876,90.9133915 44.2254268,90.7424774 44.2129058,90.342938 C44.196211,89.812161 44.1992717,89.277777 44.2401738,88.7486647 C44.2841366,88.1807084 44.0122908,88.0045226 43.4953109,88.0178405 Z M100.772291,87.4920811 C106.047267,87.5045711 111.322243,87.4931953 116.597497,87.5101203 C117.681541,87.5137272 118.22245,87.9301916 118.300637,88.7658949 C117.146475,88.7658949 115.998157,88.7672822 114.850116,88.7656174 C113.892952,88.7639527 112.93551,88.7412011 111.979737,88.7703342 C111.801381,88.7758834 111.629704,88.9834219 111.454966,89.0977346 C111.637217,89.2273074 111.818076,89.4678634 112.001718,89.4698056 C114.449443,89.4967191 116.89828,89.4753548 119.346283,89.5044879 C119.822918,89.5103145 120.327377,89.6121416 120.762552,89.800258 C121.04525,89.9223395 121.225553,90.2808152 121.451766,90.5335793 C121.405299,90.5924004 121.358832,90.6512215 121.312365,90.7100426 L121.312365,90.7100426 L98.4745403,90.7100426 L98.4745403,89.4914474 L98.4745403,89.4914474 L99.2833997,89.4914474 C102.154336,89.4897826 105.025828,89.4922797 107.896764,89.4786843 C108.116021,89.4775745 108.465776,89.4226378 108.528659,89.2877932 C108.712579,88.8929706 108.463828,88.7495249 108.06705,88.752022 C106.620174,88.7611781 105.173298,88.7545191 103.726422,88.7545191 C102.746998,88.7545191 101.767018,88.7328774 100.788707,88.764785 C100.265049,88.78171 100.221643,88.5017549 100.216356,88.1005508 C100.21107,87.7012888 100.308177,87.4909757 100.772291,87.4920811 Z M109.364515,85.3023875 L119.408722,85.305717 C119.895929,85.3062719 120.393988,85.3157055 120.868397,85.4119834 C121.747096,85.5901114 122.079321,86.0831541 122.029237,86.9934936 C121.976926,87.9418448 121.295782,89.0228209 120.633836,88.9487396 C120.116856,88.8910284 119.641891,88.4576391 119.047281,88.1363428 C119.694201,87.7917401 120.198382,87.499022 120.042008,86.7282438 C119.78797,86.7160357 119.548401,86.6946714 119.308831,86.6946714 C112.745858,86.6957813 106.182605,86.6999431 99.6196314,86.7007755 L99.6196314,86.7007755 L99.3574936,86.7001281 C98.3925265,86.6922613 98.4087075,86.5918839 98.619061,85.3484455 C98.8438833,85.3340177 99.0820613,85.305717 99.3205176,85.305717 C106.016493,85.3023875 112.712468,85.3001679 119.408722,85.305717 Z M111.436796,80.2137813 C111.226342,81.1543637 111.780717,81.1412705 112.363857,81.1288234 L112.538926,81.126063 C114.67446,81.1157971 116.809993,81.1149647 118.945248,81.1266179 C119.319488,81.1285601 119.707641,81.1599129 120.064629,81.2628498 C120.633363,81.4271049 121.029306,81.7797539 121.030141,82.5219539 L121.030141,82.5219539 L119.094171,82.5222416 L119.094171,82.5222416 L118.143623,82.5216764 C116.119666,82.5194567 114.095431,82.5133527 112.071196,82.5166822 C111.802689,82.5169596 111.469908,82.4234563 111.454604,82.897077 C111.442404,83.2810361 111.638641,83.3399261 111.870061,83.3469112 L112.011749,83.3470589 L112.011749,83.3470589 L112.083161,83.3465588 L112.083161,83.3465588 L115.731225,83.3446063 L115.731225,83.3446063 L117.555134,83.35516 C117.946904,83.3593219 118.371228,83.4070447 118.718478,83.5682477 C119.009523,83.7030923 119.20986,84.0327123 119.450264,84.2760429 L119.450264,84.2760429 L119.32561,84.4713733 L119.32561,84.4713733 L118.859621,84.5114922 L118.859621,84.5114922 L118.626657,84.5202077 C113.087905,84.5174313 107.54943,84.512992 102.010677,84.5043908 C100.984509,84.5030035 100.979222,84.4882982 101.160638,83.3410097 L101.160638,83.3410097 L106.986957,83.3417727 L106.986957,83.3417727 L107.987945,83.3396224 C108.275094,83.3376802 108.581999,83.3804087 108.587842,82.9289846 C108.593963,82.4725663 108.287059,82.5144625 107.999075,82.514185 C105.352126,82.5122428 102.705178,82.5127977 100.057951,82.5127977 L99.2760818,82.5127977 L99.2760818,81.1671268 C99.5303981,81.1521441 99.7902793,81.1235659 100.050439,81.1232884 C102.563829,81.1199589 105.077498,81.1124676 107.590889,81.1277278 C108.213602,81.1316122 108.81656,81.189046 108.576712,80.2137813 L108.576712,80.2137813 Z M50.1637399,82.328427 C49.8145419,82.1175589 49.2844844,82.1602874 48.8387353,82.1888656 C48.7466361,82.1946922 48.6606583,82.6167057 48.6089046,82.8550421 C48.4917633,83.3944203 48.751088,83.5658893 49.2672332,83.5270452 C49.7040785,83.4943052 50.1456539,83.5203862 50.7538983,83.5203862 C50.5257371,83.0237365 50.4506108,82.5015607 50.1637399,82.328427 Z" id="Combined-Shape" fill="#F70000"></path>
            <text id="台北敦北學苑大樓" font-family="PingFangTC-Semibold, PingFang TC" font-size="16" font-weight="500" letter-spacing="-0.38588235" fill="#F70000">
                <tspan x="0.0435293983" y="120">台北敦北學苑大樓</tspan>
            </text>
            <g id="Group" transform="translate(24.500000, 0.000000)" fill="#F70000">
                <path d="M0,0 L0,70 L28.0271493,70 C31.6657312,70 34.6153846,67.0503466 34.6153846,63.4117647 L34.6153846,49.4117647 C34.6153846,48.0472965 33.5092646,46.9411765 32.1447964,46.9411765 L19.7737557,46.9411765 C15.2255283,46.9411765 11.5384615,43.2541097 11.5384615,38.7058824 L11.5384615,29.6470588 C11.5384615,25.0988315 15.2255283,21.4117647 19.7737557,21.4117647 L34.6153846,21.4117647 L34.6153846,21.4117647 L34.6153846,5.76470588 C34.6153846,2.58094674 32.0344379,-1.47302549e-15 28.8506787,0 L0,0 L0,0 Z" id="Path-2"></path>
                <path d="M40.3846154,0 L40.3846154,70 L68.4117647,70 C72.0503466,70 75,67.0503466 75,63.4117647 L75,49.4117647 C75,48.0472965 73.89388,46.9411765 72.5294118,46.9411765 L60.158371,46.9411765 C55.6101437,46.9411765 51.9230769,43.2541097 51.9230769,38.7058824 L51.9230769,29.6470588 C51.9230769,25.0988315 55.6101437,21.4117647 60.158371,21.4117647 L75,21.4117647 L75,21.4117647 L75,5.76470588 C75,2.58094674 72.4190533,-1.47302549e-15 69.2352941,0 L40.3846154,0 L40.3846154,0 Z" id="Path-2" transform="translate(57.692308, 35.000000) scale(-1, 1) translate(-57.692308, -35.000000) "></path>
            </g>
        </g>
    </g>
</svg>