<?xml version="1.0" encoding="UTF-8"?>
<svg width="125px" height="125px" viewBox="0 0 125 125" version="1.1" xmlns="http://www.w3.org/2000/svg" xmlns:xlink="http://www.w3.org/1999/xlink">
    <title>陶朱隱園LOGO</title>
    <g id="廠商logo" stroke="none" stroke-width="1" fill="none" fill-rule="evenodd">
        <g id="陶朱隱園LOGO">
            <rect id="Rectangle" x="0" y="0" width="125" height="125"></rect>
            <path d="M30.1049878,4.02481355 C30.0380529,3.96632201 30.0614801,3.85604496 30.1466362,3.83033849 C30.7579747,3.64443225 30.0982943,3.13291069 30.4125164,2.55060317 C30.6999644,2.01821838 31.918551,1.78984058 32.4261404,1.64007243 C34.161241,1.1281783 35.8450249,0.737737947 37.6552413,0.546988462 C39.4743823,0.354748746 41.2161764,-0.0360641645 43.0553979,0.00268182473 C44.9366396,0.0421729291 46.8227156,0.27539398 48.7013543,0.451986277 C56.8201823,1.21610189 64.5418633,3.27411001 71.2673304,8.06631828 C72.4598867,8.91612214 73.7011567,9.69551261 74.9729193,10.4205097 C75.6229312,10.7912045 75.6162377,10.7569292 76.300089,10.7483604 C76.4979187,10.7457525 76.6321603,10.4689422 76.8824224,10.5311593 C77.2728758,10.6280243 78.111421,11.2803726 78.4884874,11.5255155 C80.0759595,12.5575 81.8329998,13.4128922 83.3167228,14.618116 C83.8867848,15.0815777 84.0522627,15.514117 84.4386256,16.1035031 C84.8149483,16.6779869 85.415131,17.0792315 85.665393,17.6768138 L85.6423377,18.1935512 C85.7230314,18.5228921 85.8766097,18.8138596 86.1038164,19.0660811 C86.152902,19.5209739 86.0777862,19.3268714 85.9480069,19.7437633 C85.8145091,20.1729497 85.5605284,20.6293327 85.4593824,21.0715586 C85.3578645,21.5149021 85.420337,22.4701398 84.8495313,22.64934 C84.4527563,22.7737742 83.0478677,22.1646425 82.5960574,22.0830524 C81.7984168,21.9392452 81.3402848,21.5067058 80.6571773,21.2209542 C80.2336283,21.0439893 79.6245209,21.0857158 79.1477959,20.8405729 C78.7763074,20.6494508 78.441633,20.2489514 78.0459736,20.1286153 C77.5848667,19.9881611 77.0590561,20.2537947 76.5953462,20.2314412 C76.0063193,20.2034994 74.7360442,19.5936226 74.2128366,19.851805 C73.5301009,20.1889697 73.9525343,20.3361299 74.4976817,20.644235 C75.1967792,21.0398912 75.919304,21.2004635 76.4800694,21.7831436 C76.8842817,22.203016 77.4223637,22.6586539 77.6997715,23.167195 C78.1437728,23.9808608 78.0441143,25.1447307 78.5438946,25.9457295 C78.6093421,26.0511633 78.958519,26.1469106 78.9867804,26.2489914 C79.1344089,26.786592 78.8112623,26.5228212 78.7755637,26.9631843 C78.7342872,27.4765686 78.9733934,27.9892079 78.8752222,28.5294164 C78.8402674,28.7220287 78.5673218,28.8382666 78.5212111,29.1039002 C78.4022158,29.7871708 78.7978753,29.6001469 78.4312209,30.0136858 C78.2601652,30.2070432 77.7566662,30.1075703 77.5569771,30.31583 C77.0850863,30.807606 77.3312579,31.4066787 77.4892986,31.9189453 C77.5830074,32.2233249 78.2958638,32.9948917 78.3044165,33.1047961 C78.3397433,33.550375 77.8388473,33.3551548 77.8068673,33.7396343 C77.789018,33.9490116 78.2330193,34.0134641 78.2486375,34.2440772 C78.2776426,34.6795971 78.2307882,34.497789 78.0210589,34.8792879 C77.6893594,35.4839489 77.2650667,35.6735807 76.5206022,35.7603866 C72.917275,36.180259 69.1778469,34.5242406 65.7452036,36.1944162 C65.054287,36.5304632 64.465632,37.0933977 63.7598409,37.4093265 C63.0008739,37.749099 62.1426201,37.8016297 61.3248991,38.0594395 C60.9422547,38.1801482 59.4421699,38.6339233 59.3023504,38.9237731 C58.9777163,39.5966121 61.101411,39.2132504 61.4874021,39.1867988 C65.0840358,38.9394205 68.8788711,38.7725147 72.299243,39.8834815 C72.6212741,39.9877976 73.4888244,40.2262344 73.7580514,40.5213001 C74.2295703,41.0376649 74.4136412,42.1311214 74.6813807,42.7700577 C75.1186885,43.8132189 75.5340566,45.6249665 73.8231269,45.5981423 C72.965245,45.5847302 72.0627398,45.0042855 71.236466,44.8053398 C70.5180317,44.6324731 69.6627528,44.6082568 68.9309316,44.5829229 C66.7644729,44.5087839 64.5928082,44.7233771 62.4270933,44.7207692 C60.4409869,44.7181613 58.5426396,44.709965 56.5569051,44.8865573 C55.118921,45.0143446 51.9220371,45.0407962 50.9585469,46.3644933 C49.6890155,48.1084354 53.4403431,47.8278995 54.2524862,47.8595669 C55.1828809,47.895705 56.122944,47.9221566 57.0477608,48.038022 C57.5296919,48.0987489 58.0049295,48.241811 58.4872324,48.2880081 C59.2833855,48.3651275 59.7474673,48.1345144 60.5298616,48.0428652 C61.8544283,47.8871361 62.5542695,48.8155497 63.8055798,48.7913334 C65.6581882,48.7555679 67.480676,48.6862722 69.3474152,48.8032553 C70.6485547,48.8848454 72.1776447,48.9709062 73.2969445,49.7782385 C73.964062,50.2599554 73.8952678,50.3117409 73.5204326,51.0523854 C73.1753461,51.7345384 72.9421897,52.4360643 72.4673239,53.0697848 C71.4882155,54.374854 69.7218786,54.1040046 68.210638,54.0376894 C67.8395213,54.0212968 67.4747263,53.970629 67.1013784,53.9683937 C67.0727452,53.9683937 65.9367117,53.8361357 66.0084807,53.812292 C65.9805912,53.821606 65.6596757,54.0615331 65.6886808,54.0570624 C65.6726908,54.1867124 65.6020373,54.281342 65.4767204,54.3413238 C65.2242272,54.3893837 64.97694,54.358834 64.7348589,54.2493021 C64.4864561,54.2411058 63.3987645,54.2425961 63.2124624,54.1572804 C63.0663213,54.09022 62.8896876,53.8167627 62.7870541,53.7847228 C62.5672847,53.7165447 62.5074151,53.4620879 62.1783187,53.4255773 C61.833976,53.3872038 61.2006977,53.7545456 60.8645359,53.8469399 C60.1360614,54.0470033 59.4042401,54.0477484 58.6817154,54.2217328 C57.4705661,54.513818 56.5000105,55.0752623 55.2237856,55.183304 C53.7474998,55.3081108 52.3757068,56.1418946 50.9466473,56.6150428 C50.09769,56.8963238 49.2022502,57.2685088 48.3562678,57.5062005 C47.5128884,57.7431472 46.6468256,58.1656275 45.7874562,58.3928876 C45.2196254,58.5430283 44.6488197,58.5389302 44.0772703,58.7278169 C43.3867255,58.9554496 42.2343302,59.1197474 41.6337756,59.4338135 C41.3827698,59.5649538 40.7665972,59.8004102 41.4318554,60.1006916 C41.6869517,60.2158119 42.4091045,59.8473524 42.7300201,59.8555487 C43.1628656,59.8663529 43.574515,60.0798284 44.0092198,60.0567298 C44.8083478,60.0138857 45.2534647,59.6525048 46.1128341,59.7467619 C46.8141628,59.8238813 47.2027569,59.7676251 47.924166,59.7411735 C48.8820784,59.7061531 49.8437094,59.9818457 50.809059,60.0056894 C51.7450316,60.0291605 52.4002496,59.6569755 53.3146543,59.6111509 C56.2917686,59.4610102 59.4209739,59.3183206 62.4735758,58.8738594 C64.0145653,58.6495798 65.8009826,58.5057725 67.3616807,58.6257361 C69.0521581,58.7550136 70.7593691,58.2259818 72.475133,58.366436 C74.1600324,58.5039098 76.0632139,58.3261998 77.8146764,58.2524334 C79.789627,58.1689805 81.757884,58.1969223 83.7242818,58.1257638 C85.1102055,58.0758411 86.5188126,58.1142145 87.8262738,58.4357317 C89.5821986,58.8678985 91.4076613,58.6242459 93.1899881,58.886899 C94.9927673,59.1529051 96.7970339,59.5180115 98.5972101,59.8074888 C100.408914,60.0984562 98.6206373,60.8066882 97.6675591,61.0436348 C95.7402067,61.523489 93.6321301,60.9721038 91.6876721,61.0980282 C89.5799674,61.2343843 87.5027553,61.5663331 85.4047189,61.688532 C81.5544764,61.9131842 77.7499727,62.380744 73.9060518,62.7477132 C70.0004021,63.1206434 66.0400889,63.5364177 62.1292331,64.0520374 C58.2284176,64.5661668 54.2896723,64.5456762 50.3903442,64.9379793 C46.1626634,65.362695 41.9431635,65.9789052 37.7080454,66.3376782 C35.82606,66.4971328 33.7663253,66.326874 31.9460686,66.8860829 C30.9799753,67.1830113 30.0744953,67.6088447 29.0901808,67.8733606 C28.7949236,67.9527153 28.3048116,68.167681 27.9961675,68.1386216 C27.4982464,68.0916793 27.6425283,68.041384 27.2874016,67.8379676 L27.1405167,67.4888811 C26.9638831,67.3175046 26.7519226,67.2362871 26.5046355,67.2444833 C26.2331774,67.1051468 25.9881214,67.2202671 25.7345126,66.957614 C25.3778985,66.588782 25.3455466,65.4681288 25.7408342,65.10414 C25.8442114,65.0087653 26.1747953,65.2628495 26.3819215,65.1175521 C26.5276908,65.0154713 26.5410778,64.5229502 26.580495,64.4394973 C26.9538428,63.6556361 26.663048,63.2108023 27.1341951,62.4291765 C27.4729599,61.8669871 27.8979964,61.753357 28.2709723,61.3241707 C28.658079,60.8793369 28.4576463,60.2146942 29.1005929,60.0254349 C29.5338102,59.8976477 30.3571092,60.2754211 30.8386684,60.3216182 C31.7374549,60.407679 32.637729,60.2702053 33.5681237,60.0213368 C35.0336255,59.6290337 36.4894589,58.8187209 37.8311312,58.1447642 C39.208874,57.4525522 40.5944258,56.6590046 41.9427916,55.8922811 C42.6311052,55.5010956 43.2439311,54.9865936 43.9348477,54.6043495 C44.6462167,54.2109287 45.2895352,54.0876121 45.9064515,53.5507566 C46.4802321,53.0511569 47.0681434,52.7646601 46.9539823,51.9170916 C46.8636202,51.2453703 46.5772877,50.7252799 46.6587251,49.9961847 C46.739047,49.2778936 47.9870105,46.6971872 46.2210454,47.5346967 C45.6933755,47.7850554 45.5468625,48.2276538 44.8935038,48.0953958 C44.2576226,47.967236 43.9671996,47.342457 43.5971985,47.0492541 C43.5763743,47.0328616 43.5815804,47.0000765 43.6068669,46.9922528 C44.0739235,46.8417396 43.6265755,46.4136709 43.6685957,46.0992323 C43.707641,45.8034216 44.2107681,45.6320451 44.3781053,45.3865296 C44.6785685,44.945794 44.6707595,44.5616871 45.0749717,44.1582072 C45.5721491,43.661588 46.1533668,43.3754637 46.8022632,43.088967 C49.7529755,41.7865056 52.753517,40.9143483 55.2814239,38.8045547 C55.8853252,38.3004843 57.2437312,37.4309349 57.3854101,36.6053472 C57.5397321,35.7082286 55.1806498,36.3780871 54.4648185,36.4570693 C53.0933974,36.6079551 51.9555046,37.0557694 50.7633202,37.7312163 C49.8150762,38.2684443 49.6261711,38.2099528 48.640741,37.7114707 C47.8866081,37.3303443 47.367491,37.3340699 46.6059209,37.169772 C45.8105116,36.9987681 45.8216674,36.5755426 45.3683696,35.9172334 C45.188761,35.655698 45.1032331,35.5305186 44.8514836,35.3058664 C44.879745,35.3315728 44.2494416,35.167275 44.2014716,35.0871751 C44.0188882,34.782423 44.1709791,34.3740998 44.1505268,34.0443864 C44.141974,33.9128736 43.982074,33.1599347 43.9817021,33.1614249 C44.0835919,32.7139832 44.6253925,32.3719754 45.0786903,32.1093223 C46.2340606,31.4390912 47.5549087,30.7088783 48.8170029,30.2618092 C49.4900702,30.0233723 50.2062733,29.9645082 50.8934713,29.7689155 C51.480267,29.6012646 51.9067909,29.2272168 52.4616066,29.0711151 C55.2784491,28.2768223 58.3786492,28.3531967 61.2888286,28.4116882 C61.6350306,28.4187668 65.2398453,28.4433556 65.2160462,28.1639374 C65.1680762,27.5965322 61.7889808,27.1867188 61.2356526,27.1114622 C57.9167986,26.6595499 54.6667387,26.1267925 51.3196233,25.9993778 C49.6254273,25.9349253 47.9435028,25.8283739 46.2522817,25.7490191 C45.6736669,25.7218224 44.6930711,25.925984 44.2074214,25.7896279 C43.5730276,25.6119179 43.2535995,25.0247672 42.6805626,24.674563 C41.640841,24.0393523 40.5728579,23.399671 39.4844225,22.8248146 C38.1531623,22.1217984 39.2631656,22.032012 39.2111051,20.8875151 C39.1895372,20.4125042 38.5912139,20.3264434 39.0236875,19.7009192 C39.3007235,19.3007924 40.6851597,18.8336051 41.1406887,18.6778761 C42.3938583,18.2494348 43.5667059,18.2293167 44.9106094,18.1745508 C46.3076889,18.117922 47.6352305,17.8634652 48.9921491,17.7166775 C50.7027069,17.5318889 52.3712445,17.5620661 54.1234507,17.6347148 C57.7933409,17.7867183 61.3263865,18.2244735 64.9375228,18.9565492 C65.4633334,19.0631006 65.9779882,18.7661722 66.5078893,18.8492526 C67.5319928,19.0087072 67.7722146,19.269125 68.3292615,18.4509885 C68.5512621,18.1246281 68.8736651,17.5643014 68.7643381,17.1507625 C68.5653928,16.3985687 68.3195931,16.8832662 67.6989581,17.0687998 C66.4379795,17.4454556 65.4685394,17.1205854 64.1186862,17.1243109 C62.4821286,17.1284091 60.7685959,16.8050291 59.1469127,16.575161 C58.1603671,16.4350794 57.3158722,15.8911453 56.3557286,15.7175335 C55.5097462,15.5640397 54.6470301,15.5502551 53.7924949,15.3278382 C53.0487741,15.1344808 52.3883501,14.7242949 51.714539,14.5275845 C51.0031701,14.32007 50.2925449,14.4161898 49.5488241,14.1486935 C48.4265494,13.7455862 47.2748978,13.5976808 46.1258492,13.0530016 C44.9042878,12.4744197 43.625088,11.6119488 42.3670843,11.1626444 C40.8841051,10.6328675 39.440543,10.6015727 38.0445791,9.87247747 C36.582424,9.10910697 34.8841376,8.81515903 33.4483846,8.02198392 C33.0356196,7.79360612 30.2503852,5.98483903 30.6713312,5.5906731 C30.9357239,5.3429223 31.4961175,6.08095888 31.4325294,5.26841078 C31.4091022,4.96887448 30.5025066,4.37203723 30.1049878,4.02481355" id="Fill-42" fill="#6C833B"></path>
            <path d="M86.7115479,83.1701281 C86.8238497,83.3955254 86.7331158,83.6697278 86.5077684,83.7829853 C85.9842336,84.0452435 85.4387605,84.2641824 84.879128,84.4379777 L86.2794089,87.7160013 C86.2990061,87.761361 86.3104648,87.8065008 86.3147282,87.8536884 C86.3152811,87.8624611 86.3158287,87.871108 86.3161287,87.8797406 C86.3165105,87.8849831 86.316595,87.8900826 86.316595,87.8952015 L86.3147399,87.9342966 C86.3140204,87.9426876 86.3130692,87.9510445 86.3118901,87.9593579 L86.316595,87.8952015 C86.316595,87.9356602 86.3113478,87.974886 86.3014999,88.0122358 C86.2991147,88.0200284 86.2967871,88.0279587 86.2942483,88.0358179 C86.2887608,88.0538567 86.282004,88.0710486 86.2742762,88.087696 C86.2709085,88.0942628 86.2674559,88.1012664 86.2638251,88.1081808 C86.2556581,88.1242369 86.2465084,88.1393583 86.2365437,88.153874 C86.2320231,88.1601719 86.2274854,88.1664603 86.2227835,88.1726374 C86.2116017,88.1875024 86.1993795,88.2016294 86.18635,88.2149606 C86.1809312,88.2204118 86.1755514,88.2256527 86.1700304,88.2307692 C86.156581,88.243318 86.1422916,88.2550493 86.1273203,88.2658926 C86.1194845,88.2714218 86.1116664,88.2767039 86.1036493,88.281762 C86.0909215,88.2900101 86.0773079,88.2977036 86.0632855,88.3046953 C86.0556271,88.308275 86.0476692,88.3119641 86.039559,88.3154464 L86.0288055,88.3201303 C86.0199667,88.3236526 86.0109925,88.3269059 86.001893,88.3298804 L86.039559,88.3154464 C86.0139357,88.3264017 85.9878827,88.3348452 85.9616514,88.3408715 C85.9515161,88.3433145 85.941092,88.3453095 85.9305494,88.3469428 C85.9073718,88.3505266 85.8839767,88.3523296 85.8606941,88.3523296 L82.244,88.3513938 L82.244,89.9343938 L84.7327672,89.9346562 C85.6058954,89.9346562 86.3165206,90.6469863 86.3165206,91.5221241 L86.316,92.3053938 L87.0426524,92.3059108 C87.2944019,92.3059108 87.4985532,92.5108174 87.4985532,92.7630389 C87.4985532,93.0152604 87.2944019,93.2197945 87.0426524,93.2197945 L86.316,93.2193938 L86.3165206,94.0592413 C86.3165206,94.9343791 85.6058954,95.645964 84.7327672,95.645964 L80.475,95.6453938 L80.4751144,97.1930467 C80.4751144,99.087502 80.9432866,100.973389 81.8290581,102.646545 C82.4597333,103.839102 83.3808315,104.959755 84.5678099,105.977582 L86.9570129,108.027766 C87.1481492,108.191692 87.1704608,108.479679 87.0068422,108.671919 C86.916852,108.77698 86.7885602,108.831373 86.6602683,108.831373 C86.5554037,108.831373 86.4501672,108.795235 86.3638956,108.721469 L83.9746926,106.671284 C82.7006989,105.578573 81.7078316,104.368506 81.0228648,103.074986 C80.0679273,101.270317 79.5633127,99.2361525 79.5633127,97.1930467 L79.563,95.6453938 L77.2743632,95.645964 C77.0226138,95.645964 76.8184624,95.4414299 76.8184624,95.1888359 C76.8184624,94.9366144 77.0226138,94.7320803 77.2743632,94.7320803 L84.7327672,94.7320803 C85.1031401,94.7320803 85.404347,94.4303086 85.404347,94.0592413 L85.404,93.2193938 L77.2742517,93.2197945 C77.0225022,93.2197945 76.8183508,93.0152604 76.8183508,92.7630389 C76.8183508,92.5108174 77.0225022,92.3059108 77.2742517,92.3059108 L85.404,92.3053938 L85.404347,91.5221241 C85.404347,91.1506842 85.1031401,90.84854 84.7327672,90.84854 L77.2743632,90.84854 C77.0226138,90.84854 76.8184624,90.6440059 76.8184624,90.3914118 C76.8184624,90.1395629 77.0226138,89.9346562 77.2743632,89.9346562 L81.333,89.9343938 L81.333,88.3513938 L77.2744376,88.3523296 C77.0226881,88.3523296 76.8185368,88.1477955 76.8185368,87.8952015 C76.8185368,87.6433525 77.0226881,87.4384459 77.2744376,87.4384459 L77.861,87.4383938 L76.8458313,84.6260086 L76.8255613,84.5525574 C76.8207271,84.5258927 76.8182021,84.4984201 76.8182021,84.4703541 C76.8182021,84.2454646 76.9812821,84.0580053 77.1954448,84.0204487 L77.1195206,84.0410932 C77.1611059,84.0260445 77.2035243,84.017429 77.2456574,84.0147519 C77.2547625,84.0139149 77.2645822,84.0135985 77.2744748,84.0135985 L81.6676335,84.0135985 C83.1982109,84.0135985 84.7306476,83.6514725 86.0994657,82.9652214 C86.3259287,82.8534541 86.5988742,82.9432405 86.7115479,83.1701281 Z M75.5968638,83.8223274 C75.7627136,83.8223274 75.9151763,83.9117412 75.99587,84.0570387 C76.0761919,84.2023361 76.0717295,84.3800461 75.9839705,84.5205003 L74.0525276,87.6227874 C75.1744304,87.9443046 75.8017589,89.0239764 75.8017589,90.6930344 L75.8017589,91.9731423 C75.8017589,94.9647798 75.1008021,99.5539441 73.5627875,102.558621 C73.4478826,102.783646 73.1727059,102.873432 72.9484741,102.756822 C72.7246141,102.642074 72.6361114,102.366381 72.7510162,102.142102 C74.2202366,99.2711729 74.8895854,94.8582283 74.8895854,91.9731423 L74.8895854,90.6930344 C74.8895854,89.1953529 74.3522471,88.4360806 73.2931887,88.4360806 C73.1277108,88.4360806 72.975248,88.3462942 72.8945543,88.2009967 C72.8142325,88.0560718 72.8186948,87.8779893 72.9064539,87.7375351 L74.7750524,84.7358386 L72.2992058,84.7358386 L72.2992058,108.374245 C72.2992058,108.626839 72.0950545,108.831373 71.843305,108.831373 C71.5915555,108.831373 71.3874042,108.626839 71.3874042,108.374245 L71.3874042,84.279083 C71.3874042,84.0264889 71.5915555,83.8223274 71.843305,83.8223274 L75.5968638,83.8223274 Z M115.872282,82.917385 C117.596599,82.917385 119,84.3230448 119,86.0505943 L119,105.697791 C119,107.425713 117.596599,108.831373 115.872282,108.831373 L106.850949,108.831373 C105.126261,108.831373 103.723231,107.425713 103.723231,105.697791 L103.723231,86.0505943 C103.723231,84.3230448 105.126261,82.917385 106.850949,82.917385 L115.872282,82.917385 Z M46.6833423,82.78658 C46.9350918,82.78658 47.1392431,82.9911142 47.1392431,83.2433356 L47.139,85.1413938 L51.6427328,85.1416283 C51.8944823,85.1416283 52.0986336,85.346535 52.0986336,85.5983839 C52.0986336,85.850978 51.8944823,86.0555121 51.6427328,86.0555121 L47.139,86.0553938 L47.139,90.5703938 L53.8314287,90.5713571 C54.0831782,90.5713571 54.2873296,90.7758912 54.2873296,91.0281127 C54.2873296,91.2807068 54.0831782,91.4852409 53.8314287,91.4852409 L47.139,91.4843938 L47.1392431,108.352972 C47.1392431,108.605566 46.9350918,108.8101 46.6833423,108.8101 C46.4315928,108.8101 46.2274414,108.605566 46.2274414,108.352972 L46.227,91.4843938 L39.534884,91.4852409 C39.2831345,91.4852409 39.0789831,91.2807068 39.0789831,91.0281127 C39.0789831,90.7758912 39.2831345,90.5713571 39.534884,90.5713571 L46.227,90.5703938 L46.227,86.0553938 L42.7394133,86.0563886 C42.1119098,87.288522 41.0521442,88.2810849 39.7042292,88.8210816 C39.648822,88.8430625 39.5915555,88.8538666 39.5350327,88.8538666 C39.3539367,88.8538666 39.1828809,88.7454524 39.1114837,88.5666247 C39.0181468,88.332286 39.1319361,88.0662799 39.3658363,87.972768 C40.5647061,87.4920836 41.4933567,86.5874638 42.0094353,85.4690801 C42.0184361,85.4283034 42.0357953,85.3903102 42.0577242,85.3554764 C42.3215349,84.7493687 42.4634333,84.0828012 42.4634333,83.3891919 L42.4634333,83.2431494 C42.4634333,82.9909279 42.6679566,82.7863938 42.919706,82.7863938 C43.1714555,82.7863938 43.3756069,82.9909279 43.3756069,83.2431494 L43.3756069,83.3891919 C43.3756069,83.9962384 43.2838814,84.5858347 43.1109076,85.1424958 L46.227,85.1413938 L46.2274414,83.2433356 C46.2274414,82.9911142 46.4315928,82.78658 46.6833423,82.78658 Z M13.7410852,82.786431 C13.9928347,82.786431 14.1973579,82.9909651 14.1973579,83.2431866 L14.197,83.8003938 L21.9494572,83.8010544 C22.2012067,83.8010544 22.405358,84.0052159 22.405358,84.25781 L22.405358,102.201674 C22.405358,105.017464 20.7542979,107.59519 18.199617,108.768374 C18.13826,108.797061 18.0735563,108.8101 18.0099682,108.8101 C17.8370531,108.8101 17.6719471,108.711372 17.5953438,108.543721 C17.4901074,108.313853 17.5908815,108.043377 17.8195757,107.937943 C20.0514817,106.913037 21.4935564,104.661671 21.4935564,102.201674 L21.4935564,84.7145656 L14.1319511,84.7153878 C13.902245,86.0305006 13.0805581,87.1780829 11.874346,87.8144682 C11.8062956,87.8502338 11.7337828,87.8669989 11.6620138,87.8669989 C11.4980233,87.8669989 11.3399827,87.7783301 11.2581734,87.6229736 C11.1410374,87.4001842 11.2265652,87.1233739 11.4493096,87.0052731 C12.4875645,86.4576728 13.1653381,85.4311399 13.2707773,84.2757866 C13.267754,84.2700851 13.2676326,84.2639617 13.2676326,84.25781 C13.2676326,84.2239868 13.271293,84.1910321 13.278238,84.1593196 C13.2832507,84.0930077 13.2851844,84.0260974 13.2851844,83.9588697 L13.2851844,83.2431866 C13.2851844,82.9909651 13.4893357,82.786431 13.7410852,82.786431 Z M11.2094597,83.8010544 C11.3753094,83.8010544 11.5277722,83.8904682 11.6084659,84.0357656 C11.6887877,84.1810631 11.6843254,84.3587731 11.5965663,84.4992273 L9.66549531,87.6015143 C10.7870263,87.9230315 11.4143547,89.0027034 11.4143547,90.6717614 L11.4143547,91.9514967 C11.4143547,94.9427616 10.7137698,99.531926 9.17538331,102.537348 C9.06047844,102.762373 8.78492989,102.852159 8.56106994,102.735549 C8.33720998,102.620801 8.2487072,102.345108 8.36361207,102.120829 C9.83320434,99.2498999 10.5021812,94.8369552 10.5021812,91.9514967 L10.5021812,90.6717614 C10.5021812,89.1740799 9.96521478,88.4148075 8.90615638,88.4148075 C8.74067851,88.4148075 8.58784388,88.3250212 8.50752204,88.1797237 C8.42720019,88.0347988 8.43166252,87.8567163 8.51942157,87.7162621 L10.3876482,84.7145656 L7.91180169,84.7145656 L7.91180169,108.352972 C7.91180169,108.605566 7.70765033,108.8101 7.45590084,108.8101 C7.20415136,108.8101 7,108.605566 7,108.352972 L7,84.25781 C7,84.0052159 7.20415136,83.8010544 7.45590084,83.8010544 L11.2094597,83.8010544 Z M110.855,95.2883938 L109.392,95.2883938 L109.392764,98.6264248 C109.392764,100.751493 108.588801,102.77001 107.128506,104.312026 L104.902549,106.614059 L104.852385,106.655385 C105.209905,107.401261 105.971441,107.917489 106.850949,107.917489 L110.855,107.917394 L110.855,95.2883938 Z M111.767423,100.04083 L111.768,107.917394 L115.872282,107.917489 C116.057511,107.917489 116.237493,107.894606 116.409562,107.851515 L116.409658,107.01169 C116.409658,105.078116 115.447655,103.287977 113.837499,102.223207 C112.974961,101.653013 112.273045,100.903369 111.767423,100.04083 Z M42.449377,93.065742 C42.7011265,93.065742 42.9052779,93.2706486 42.9052779,93.5224976 L42.9052779,101.1413 C42.9052779,103.956718 41.2542177,106.534444 38.6991649,107.707628 C38.637808,107.736315 38.5731043,107.749354 38.5095161,107.749354 C38.3366011,107.749354 38.171495,107.650626 38.0948918,107.482976 C37.9896553,107.253107 38.0904295,106.982631 38.3191236,106.877197 C40.5510297,105.852291 41.9931043,103.600553 41.9931043,101.1413 L41.9931043,93.5224976 C41.9931043,93.2706486 42.1976275,93.065742 42.449377,93.065742 Z M50.9173447,93.065742 C51.1690942,93.065742 51.3732456,93.2706486 51.3732456,93.5224976 L51.3732456,101.1413 C51.3732456,103.600925 52.8153202,105.852291 55.0475981,106.877197 C55.2762923,106.982631 55.3770664,107.253107 55.2718299,107.482976 C55.1952267,107.650626 55.0301207,107.749354 54.8572056,107.749354 C54.7936175,107.749354 54.7289138,107.736315 54.6675568,107.707628 C52.112504,106.534444 50.4614439,103.956718 50.4614439,101.1413 L50.4614439,93.5224976 C50.4614439,93.2706486 50.6655952,93.065742 50.9173447,93.065742 Z M110.855,83.8303938 L106.850949,83.8308962 C105.629388,83.8308962 104.635405,84.8267426 104.635405,86.0505943 L104.635,105.577394 L106.470313,103.679423 C107.765503,102.311764 108.48059,100.515664 108.48059,98.6264248 L108.48,95.2883938 L108.404024,95.2892774 C107.097678,95.2892774 106.034901,94.2252529 106.034901,92.9164581 L106.034901,92.6098432 C106.034901,91.301421 107.097678,90.2362788 108.404024,90.2362788 L114.219921,90.2362788 C115.526266,90.2362788 116.588671,91.301421 116.588671,92.6098432 L116.588671,92.9164581 C116.588671,94.2252529 115.526266,95.2892774 114.219921,95.2892774 L111.768,95.2883938 L111.768096,96.6728445 L111.768096,96.6728445 C111.768096,98.2819279 112.434306,99.7918608 113.586714,100.867097 C114.514,99.8340904 115.020015,98.5123916 115.020015,97.1128723 L115.020015,96.4482296 C115.020015,96.1960081 115.224167,95.991474 115.475916,95.991474 C115.727666,95.991474 115.932189,96.1960081 115.932189,96.4482296 L115.932189,97.1128723 C115.932189,98.7215311 115.356894,100.241177 114.303742,101.4356 C114.314768,101.443902 114.327306,101.452264 114.339883,101.460582 C116.206994,102.694865 117.321459,104.770384 117.321459,107.01169 L117.322258,107.374868 C117.790981,106.967549 118.087826,106.366729 118.087826,105.697791 L118.087826,86.0505943 C118.087826,84.8267426 117.094215,83.8308962 115.872282,83.8308962 L111.768,83.8303938 L111.768,85.7613938 L115.476065,85.7614151 C115.727814,85.7614151 115.931966,85.9663218 115.931966,86.2181707 C115.931966,86.4707648 115.727814,86.6752989 115.476065,86.6752989 L111.768,86.6743938 L111.768,88.0563938 L115.476065,88.0571522 C115.727814,88.0571522 115.931966,88.2620589 115.931966,88.5139078 C115.931966,88.7665019 115.727814,88.971036 115.476065,88.971036 L107.14788,88.971036 C106.89613,88.971036 106.691607,88.7665019 106.691607,88.5139078 C106.691607,88.2620589 106.89613,88.0571522 107.14788,88.0571522 L110.855,88.0563938 L110.855,86.6743938 L107.14788,86.6752989 C106.89613,86.6752989 106.691607,86.4707648 106.691607,86.2181707 C106.691607,85.9663218 106.89613,85.7614151 107.14788,85.7614151 L110.855,85.7613938 L110.855,83.8303938 Z M15.3416467,85.7195024 C15.5933962,85.7195024 15.7979194,85.894977 15.7979194,86.146826 L15.7979194,86.2053175 C15.7979194,86.6321381 15.7363122,87.0489036 15.6194207,87.4451216 L20.3625058,87.4444813 C20.6142553,87.4444813 20.8187785,87.649388 20.8187785,87.9012369 C20.8187785,88.1538309 20.6142553,88.3583651 20.3625058,88.3583651 L18.055,88.3573938 L18.055,90.5703938 L20.3625058,90.5713571 C20.6142553,90.5713571 20.8187785,90.7758912 20.8187785,91.0281127 C20.8187785,91.2807068 20.6142553,91.4852409 20.3625058,91.4852409 L18.055,91.4843938 L18.0558395,104.657599 C18.8286312,104.454526 19.4003914,103.74875 19.4003914,102.911694 L19.4003914,93.5224976 C19.4003914,93.2706486 19.6045427,93.065742 19.8562922,93.065742 C20.1080417,93.065742 20.3125649,93.2706486 20.3125649,93.5224976 L20.3125649,102.911694 C20.3125649,104.410866 19.095094,105.630247 17.5990996,105.630247 C16.1031053,105.630247 14.8856343,104.410866 14.8856343,102.911694 L14.8856343,93.5224976 C14.8856343,93.2706486 15.0901576,93.065742 15.341907,93.065742 C15.5936565,93.065742 15.7978079,93.2706486 15.7978079,93.5224976 L15.7978079,102.911694 C15.7978079,103.749116 16.3700679,104.455143 17.1433731,104.657865 L17.143,91.4843938 L14.6168908,91.4852409 C14.3647695,91.4852409 14.1606181,91.2807068 14.1606181,91.0281127 C14.1606181,90.7758912 14.3647695,90.5713571 14.6168908,90.5713571 L17.143,90.5703938 L17.143,88.3573938 L15.4268028,88.3583651 C15.3645549,88.3583651 15.3051943,88.3458602 15.2510989,88.323216 C14.8494021,89.0487581 14.23926,89.657386 13.4745357,90.0605434 C13.4068571,90.0959364 13.3343443,90.1127015 13.2625753,90.1127015 C13.0985848,90.1127015 12.9405442,90.0240328 12.8587349,89.8686763 C12.7415989,89.6451417 12.8271268,89.3690765 13.0498711,89.2513483 C14.182186,88.6545111 14.8857459,87.4872882 14.8857459,86.2053175 C14.8857459,85.953096 15.0898973,85.7195024 15.3416467,85.7195024 Z M78.191185,96.2156046 C78.4429345,96.2156046 78.6474578,96.4205113 78.6474578,96.6727328 L78.6474578,96.8720511 C78.6474578,98.618601 77.9684407,100.261207 76.7349797,101.496981 C76.6457333,101.586022 76.5293409,101.630729 76.4125768,101.630729 C76.2958126,101.630729 76.1790485,101.586022 76.0901738,101.496981 C75.9120527,101.318526 75.9120527,101.029049 76.0901738,100.850594 C77.1507197,99.7876868 77.7352842,98.3745758 77.7352842,96.8720511 L77.7352842,96.6727328 C77.7352842,96.4205113 77.9394356,96.2156046 78.191185,96.2156046 Z M84.4298125,96.2156046 C84.681562,96.2156046 84.8857134,96.4205113 84.8857134,96.6727328 L84.8857134,96.8720511 C84.8857134,98.3745758 85.469906,99.7884319 86.5304519,100.850594 C86.708573,101.029049 86.708573,101.318526 86.5304519,101.496981 C86.4415772,101.586022 86.3248131,101.630729 86.2080489,101.630729 C86.0912848,101.630729 85.9748925,101.586022 85.885646,101.496981 C84.6525569,100.261953 83.9735398,98.6193462 83.9735398,96.8720511 L83.9735398,96.6727328 C83.9735398,96.4205113 84.178063,96.2156046 84.4298125,96.2156046 Z M82.4457886,96.2156046 C82.6975381,96.2156046 82.9016894,96.4205113 82.9016894,96.6727328 L82.9016894,101.173601 C82.9016894,101.425822 82.6975381,101.630729 82.4457886,101.630729 C82.1940391,101.630729 81.9898877,101.425822 81.9898877,101.173601 L81.9898877,96.6727328 C81.9898877,96.4205113 82.1940391,96.2156046 82.4457886,96.2156046 Z M114.219921,91.1501626 L108.404024,91.1501626 C107.600434,91.1501626 106.947075,91.8051188 106.947075,92.6098432 L106.947075,92.9164581 C106.947075,93.7211825 107.600434,94.3757662 108.404024,94.3757662 L114.219921,94.3757662 C115.023139,94.3757662 115.67687,93.7211825 115.67687,92.9164581 L115.67687,92.6098432 C115.67687,91.8051188 115.023139,91.1501626 114.219921,91.1501626 Z M80.489,84.9273938 L77.924,84.9273938 L78.83,87.4383938 L81.188,87.4383938 L80.489,84.9273938 Z M81.6676335,84.9274822 L81.436,84.9273938 L82.135,87.4383938 L85.169,87.4383938 L83.9877281,84.6739804 C83.226099,84.8415486 82.446624,84.9274822 81.6676335,84.9274822 Z" id="Combined-Shape" fill="#6C833B"></path>
            <path d="M25.7837469,117.656517 C26.3995477,117.656517 26.9391172,117.763069 27.4028271,117.976544 C27.866537,118.19002 28.2525281,118.470183 28.5608003,118.815544 C28.8683289,119.161277 29.0988823,119.553208 29.2509732,119.990591 C29.4030641,120.427973 29.4796674,120.873552 29.4796674,121.3277 C29.4796674,121.782593 29.4030641,122.228172 29.2509732,122.665554 C29.0988823,123.102937 28.8683289,123.494122 28.5608003,123.840601 C28.2525281,124.186334 27.866537,124.466125 27.4028271,124.6796 C26.9391172,124.893076 26.3995477,125 25.7837469,125 C25.1612526,125 24.6198239,124.893076 24.1594607,124.6796 C23.6990975,124.466125 23.3157095,124.186334 23.0074372,123.840601 C22.6991649,123.494122 22.4693552,123.102937 22.3176362,122.665554 C22.1648016,122.228172 22.0885702,121.782593 22.0885702,121.3277 C22.0885702,120.873552 22.1648016,120.427973 22.3176362,119.990591 C22.4693552,119.553208 22.6991649,119.161277 23.0074372,118.815544 C23.3157095,118.470183 23.6990975,118.19002 24.1594607,117.976544 C24.6198239,117.763069 25.1612526,117.656517 25.7837469,117.656517 Z M52.6151477,117.76821 L52.6151477,122.324962 C52.6151477,122.710932 52.6727861,123.03841 52.7880628,123.305906 C52.9033395,123.57452 53.0639832,123.791349 53.2703657,123.956764 C53.4771201,124.123297 53.7218043,124.244006 54.0062775,124.318518 C54.2903788,124.392657 54.5986511,124.430285 54.9303505,124.430285 C55.2613063,124.430285 55.5680911,124.392657 55.8492176,124.318518 C56.1296003,124.244006 56.3731689,124.123297 56.5802951,123.956764 C56.7863058,123.791349 56.9469495,123.57452 57.0622262,123.305906 C57.1775029,123.03841 57.2351413,122.710932 57.2351413,122.324962 L57.2351413,117.76821 L57.8334646,117.76821 L57.8334646,122.34508 C57.8334646,122.840582 57.7557458,123.256729 57.6003082,123.596501 C57.4448705,123.935156 57.2351413,124.208241 56.9703767,124.414638 C56.7067277,124.62178 56.3984554,124.77043 56.0474192,124.862452 C55.6945237,124.954473 55.3226633,124.999925 54.9303505,124.999925 C54.5306006,124.999925 54.1550216,124.954473 53.8028698,124.862452 C53.4510899,124.77043 53.1435614,124.62178 52.8799123,124.414638 C52.6151477,124.208241 52.4057903,123.935156 52.2503527,123.596501 C52.094915,123.256729 52.0171962,122.840582 52.0171962,122.34508 L52.0171962,117.76821 L52.6151477,117.76821 Z M96.6136696,117.76821 L96.6136696,122.324962 C96.6136696,122.710932 96.6713079,123.03841 96.7865847,123.305906 C96.9018614,123.57452 97.0625051,123.791349 97.2688876,123.956764 C97.475642,124.123297 97.7203261,124.244006 98.0047993,124.318518 C98.2889007,124.392657 98.5971729,124.430285 98.9288724,124.430285 C99.2598282,124.430285 99.566613,124.392657 99.8477394,124.318518 C100.128122,124.244006 100.371691,124.123297 100.578817,123.956764 C100.784828,123.791349 100.945471,123.57452 101.060748,123.305906 C101.176025,123.03841 101.233663,122.710932 101.233663,122.324962 L101.233663,117.76821 L101.831987,117.76821 L101.831987,122.34508 C101.831987,122.840582 101.754268,123.256729 101.59883,123.596501 C101.443392,123.935156 101.233663,124.208241 100.968899,124.414638 C100.70525,124.62178 100.396977,124.77043 100.045941,124.862452 C99.6930455,124.954473 99.3211851,124.999925 98.9288724,124.999925 C98.5291225,124.999925 98.1535435,124.954473 97.8013917,124.862452 C97.4496118,124.77043 97.1420832,124.62178 96.8784342,124.414638 C96.6136696,124.208241 96.4043122,123.935156 96.2485027,123.596501 C96.0934369,123.256729 96.0153462,122.840582 96.0153462,122.34508 L96.0153462,117.76821 L96.6136696,117.76821 Z M12.8907149,117.76821 L12.8907149,118.347537 L10.2917826,118.347537 L10.2917826,124.887786 L9.69345921,124.887786 L9.69345921,118.347537 L7.09452691,118.347537 L7.09452691,117.76821 L12.8907149,117.76821 Z M17.3788467,117.768098 L20.5359415,124.888046 L19.8863014,124.888046 L19.0436657,122.976081 L15.0331514,122.976081 L14.1808473,124.888046 L13.5308354,124.888046 L16.6987141,117.768098 L17.3788467,117.768098 Z M40.453937,117.768322 L40.453937,118.30704 L36.048135,124.307825 L40.5755353,124.307825 L40.5755353,124.887897 L35.3267258,124.887897 L35.3267258,124.348807 L39.7232313,118.347276 L35.4691484,118.347276 L35.4691484,117.768322 L40.453937,117.768322 Z M43.7018772,117.76821 L43.7018772,121.023246 L48.3114586,121.023246 L48.3114586,117.76821 L48.9105257,117.76821 L48.9105257,124.887786 L48.3114586,124.887786 L48.3114586,121.602573 L43.7018772,121.602573 L43.7018772,124.887786 L43.1039257,124.887786 L43.1039257,117.76821 L43.7018772,117.76821 Z M64.2295378,117.768322 L66.6559269,121.562076 L69.0819441,117.768322 L69.7527802,117.768322 L66.9604805,122.111598 L66.9604805,124.887897 L66.3510014,124.887897 L66.3510014,122.111598 L63.5598172,117.768322 L64.2295378,117.768322 Z M72.7264734,117.768322 L72.7264734,124.887897 L72.1281501,124.887897 L72.1281501,117.768322 L72.7264734,117.768322 Z M76.4626292,117.768322 L81.1224118,123.860756 L81.1224118,117.768322 L81.7214789,117.768322 L81.7214789,124.887897 L81.1733567,124.887897 L76.5132022,118.785032 L76.5132022,124.887897 L75.9148788,124.887897 L75.9148788,117.768322 L76.4626292,117.768322 Z M88.1984689,117.768322 L90.6244861,121.562076 L93.0505033,117.768322 L93.7213394,117.768322 L90.9294116,122.111598 L90.9294116,124.887897 L90.3195606,124.887897 L90.3195606,122.111598 L87.5283764,117.768322 L88.1984689,117.768322 Z M107.711322,117.768098 L110.868417,124.888046 L110.218405,124.888046 L109.37577,122.976081 L105.365255,122.976081 L104.512951,124.888046 L103.863311,124.888046 L107.030818,117.768098 L107.711322,117.768098 Z M113.740927,117.768322 L118.40071,123.860756 L118.40071,117.768322 L118.999777,117.768322 L118.999777,124.887897 L118.451283,124.887897 L113.7915,118.785032 L113.7915,124.887897 L113.193177,124.887897 L113.193177,117.768322 L113.740927,117.768322 Z M25.7837469,118.225785 C25.2623986,118.225785 24.8091008,118.315944 24.4238534,118.495145 C24.0378624,118.674717 23.716575,118.909056 23.4588757,119.197043 C23.2022921,119.485775 23.010784,119.815861 22.8850951,120.188419 C22.7605219,120.562094 22.6973056,120.94173 22.6973056,121.3277 C22.6973056,121.714415 22.7605219,122.094051 22.8850951,122.466981 C23.010784,122.840656 23.2022921,123.17037 23.4588757,123.459102 C23.716575,123.747089 24.0378624,123.981428 24.4238534,124.160628 C24.8091008,124.340201 25.2623986,124.430359 25.7837469,124.430359 C26.3050952,124.430359 26.758393,124.340201 27.1443841,124.160628 C27.5303752,123.981428 27.8516626,123.747089 28.1086181,123.459102 C28.3663174,123.17037 28.5574536,122.840656 28.6823987,122.466981 C28.8073438,122.094051 28.8701882,121.714415 28.8701882,121.3277 C28.8701882,120.94173 28.8073438,120.562094 28.6823987,120.188419 C28.5574536,119.815861 28.3663174,119.485775 28.1086181,119.197043 C27.8516626,118.909056 27.5303752,118.674717 27.1443841,118.495145 C26.758393,118.315944 26.3050952,118.225785 25.7837469,118.225785 Z M17.0330166,118.388407 C17.0200014,118.422682 17.0043833,118.458448 16.9876496,118.495331 C16.9709159,118.532959 16.9552977,118.571705 16.9422826,118.612686 L15.2670515,122.40644 L18.7997253,122.40644 L17.1248661,118.612686 C17.1107354,118.571705 17.095861,118.532959 17.0791272,118.495331 C17.0616498,118.458448 17.0467754,118.422682 17.0330166,118.388407 Z M107.365492,118.388407 C107.352477,118.422682 107.336487,118.458448 107.319753,118.495331 C107.303392,118.532959 107.287773,118.571705 107.274386,118.612686 L105.599527,122.40644 L109.132201,122.40644 L107.45697,118.612686 C107.443211,118.571705 107.428337,118.532959 107.411603,118.495331 C107.394126,118.458448 107.379251,118.422682 107.365492,118.388407 Z" id="Combined-Shape" fill="#6C833B"></path>
        </g>
    </g>
</svg>