<?xml version="1.0" encoding="UTF-8"?>
<svg width="125px" height="125px" viewBox="0 0 125 125" version="1.1" xmlns="http://www.w3.org/2000/svg" xmlns:xlink="http://www.w3.org/1999/xlink">
    <title>Group 41</title>
    <defs>
        <path d="M35.7504997,0 C25.5878691,0.0430224752 17.705224,8.72280685 18.4590736,18.3082143 L18.4590736,18.3082143 C18.2071076,18.3748992 17.9469475,18.441584 17.6826904,18.5039666 L17.6826904,18.5039666 C11.4695764,20.0420201 6.57160229,23.3870175 3.40051739,28.9154056 L3.40051739,28.9154056 C1.11643493,32.8971357 0.00409700891,37.0165377 0,41.2305891 L0,41.2305891 L0,41.3037273 C0.00614551336,44.0958859 0.499835087,46.9332182 1.46468068,49.7963639 L1.46468068,49.7963639 C6.48351659,64.7144072 24.5287923,71.5485274 38.4463316,63.8625622 L38.4463316,63.8625622 C48.295541,58.4202191 53.4639177,47.6323334 51.3457641,36.7820652 L51.3457641,36.7820652 C51.056925,35.2934875 50.7045822,33.7210161 49.9466356,32.434644 L49.9466356,32.434644 C48.770794,30.4297967 46.92714,28.9390679 44.7782588,27.9603066 L44.7782588,27.9603066 C39.1469201,25.394016 33.4643687,25.5467458 27.8944851,28.0678628 L27.8944851,28.0678628 C24.6824302,29.5241736 22.5089669,32.0624996 21.3249314,35.3730791 L21.3249314,35.3730791 C20.9602976,36.3905606 20.9234245,36.4163741 19.7393889,36.1324258 L19.7393889,36.1324258 C19.9626759,35.0073881 19.9360453,33.7446784 20.470705,32.7831261 L20.470705,32.7831261 C21.3904835,31.1246097 22.4536573,29.4424309 23.8220583,28.141001 L23.8220583,28.141001 C28.7077414,23.4859692 34.5828522,21.9930893 41.0766113,23.9721232 L41.0766113,23.9721232 C47.5416914,25.9425525 51.4420438,30.4362501 52.9640826,36.9261905 L52.9640826,36.9261905 C53.0132467,37.1413028 53.0787989,37.3499618 53.1955636,37.7737332 L53.1955636,37.7737332 C54.1788458,32.3787148 51.8455992,24.856235 45.0384189,20.8314825 L45.0384189,20.8314825 C40.7160745,18.2780986 36.0782604,17.641366 31.2294504,18.9793649 L31.2294504,18.9793649 C26.3744948,20.3216662 22.8060001,23.3203327 20.2781456,27.6397892 L20.2781456,27.6397892 C20.1634293,26.8438734 20.1408958,26.0995846 20.1736719,25.3531446 L20.1736719,25.3531446 C20.1880114,24.9896047 20.235127,24.5959491 20.3887648,24.2711294 L20.3887648,24.2711294 C21.2921553,22.3738382 22.5089669,20.6722993 24.0904124,19.2740689 L24.0904124,19.2740689 C29.0703267,14.8642652 34.8491578,13.4466746 41.2302491,15.4622776 L41.2302491,15.4622776 C47.6113405,17.4735783 51.4563834,21.9393112 52.9620341,28.3625668 L52.9620341,28.3625668 C53.0111982,28.5776791 53.0747019,28.7906404 53.1894181,29.2144118 L53.1894181,29.2144118 C54.2443979,23.6430012 51.6489428,15.5009978 43.9158385,11.6397307 L43.9158385,11.6397307 C40.1158627,9.74028838 36.1151335,9.24122767 31.9689605,10.2242912 L31.9689605,10.2242912 C26.2474876,11.5816503 22.2877285,15.0729242 19.7311949,20.4464313 L19.7311949,20.4464313 C19.6308182,19.7602229 19.561169,19.2869756 19.4874229,18.8094262 L19.4874229,18.8094262 C19.4177737,18.3598413 19.1801472,17.8629317 19.2948634,17.4649738 L19.2948634,17.4649738 C20.5731302,12.9476139 23.248477,9.43267769 27.4028441,7.13527751 L27.4028441,7.13527751 C37.8502168,1.35951022 50.5796235,7.16754437 52.9743252,18.7491947 L52.9743252,18.7491947 C53.0132467,18.9341913 53.0972354,19.1148857 53.2180972,19.450461 L53.2180972,19.450461 C54.508655,12.0871644 49.7540762,2.05862544 38.8334989,0.249530356 L38.8334989,0.249530356 C37.8461198,0.0860449504 36.8710317,0.00645337128 35.9164286,0 L35.9164286,0 L35.7504997,0 Z" id="path-1"></path>
        <path d="M81.3333707,0 L81.3333707,1.41704274 L75.070358,1.41704274 L75.070358,3.98733507 L81.3333707,3.98733507 L81.3333707,5.45510727 L73.6164857,5.45510727 L73.6164857,7.7492059 L81.3333707,7.7492059 L81.3333707,9.10311866 L75.070358,9.10311866 L75.070358,11.4355462 L81.3333707,11.4355462 L81.3333707,13.0532521 L75.070358,13.0532521 L75.070358,15.3484781 L81.3333707,15.3484781 L81.3333707,16.966184 L74.0605313,16.966184 L74.0605313,19.4485453 L81.3333707,19.4485453 L81.3333707,21.518307 L81.0898993,21.518307 C73.6964835,21.518307 70.7864202,19.2602826 70.7864202,19.2602826 L70.7864202,19.2602826 C72.6159341,17.0383326 72.7214384,13.8547775 72.7260759,13.3779206 L72.7260759,13.3779206 L72.7260759,9.17864918 L68.5244547,9.17864918 C72.038559,6.24423211 73.2107,1.41704274 73.2107,1.41704274 L73.2107,1.41704274 L64.8886146,1.41704274 L64.8886146,4.06173827 L69.3731265,4.06173827 C68.9696596,6.01876787 64.8886146,9.02758814 64.8886146,9.02758814 L64.8886146,9.02758814 L64.8886146,11.3983446 L70.101222,11.3983446 C70.101222,17.1916482 68.929081,16.9289824 68.929081,16.9289824 L68.929081,16.9289824 C67.9598328,16.288664 67.5946257,13.8063027 67.5946257,13.8063027 L67.5946257,13.8063027 L64.8886146,13.8063027 C64.8886146,16.966184 67.3523136,19.4102164 67.3523136,19.4102164 L67.3523136,19.4102164 C67.1505802,20.275999 64.8886146,21.2161849 64.8886146,21.2161849 L64.8886146,21.2161849 L64.8886146,23.9623393 C67.111161,23.6613446 69.5342814,21.5555086 69.5342814,21.5555086 L69.5342814,21.5555086 C74.9486223,24.2633341 81.0493207,23.9623393 81.0493207,23.9623393 L81.0493207,23.9623393 L91.8780025,23.9623393 L91.8780025,21.518307 L84.2422746,21.518307 L84.2422746,19.4485453 L91.5962713,19.4485453 L91.5962713,16.966184 L84.2422746,16.966184 L84.2422746,15.3484781 L90.1818182,15.3484781 L90.1818182,13.0532521 L84.2422746,13.0532521 L84.2422746,11.4355462 L90.1818182,11.4355462 L90.1818182,7.7492059 L91.8780025,7.7492059 L91.8780025,5.45510727 L90.1818182,5.45510727 L90.1818182,1.41704274 L84.2422746,1.41704274 L84.2422746,0 L81.3333707,0 Z M84.2422746,5.45397995 L87.3134928,5.45397995 L87.3134928,3.98733507 L84.2422746,3.98733507 L84.2422746,5.45397995 Z M84.2422746,9.10424598 L87.3134928,9.10424598 L87.3134928,7.7492059 L84.2422746,7.7492059 L84.2422746,9.10424598 Z M45.8178452,0 L45.8178452,1.41704274 L34.6656943,1.41704274 L34.6656943,14.9110775 C34.6656943,15.2763295 34.6135218,15.639327 34.5091769,15.9921785 L34.5091769,15.9921785 L32.5243051,22.7211587 L35.8389947,23.9623393 C35.8389947,23.9623393 37.6151768,19.6751368 37.6151768,16.4013961 L37.6151768,16.4013961 L40.3223472,14.8220191 L40.4835021,23.9623393 L43.4747225,23.9623393 L43.4747225,9.7062355 L45.252064,5.64224259 L42.6666293,4.55212299 C42.6666293,4.55212299 39.8783017,12.2246711 37.5745982,12.9044457 L37.5745982,12.9044457 L37.5745982,3.98733507 L59.4336952,3.98733507 L59.4336952,1.41704274 L49.171954,1.41704274 L49.171954,0 L45.8178452,0 Z M16.0540424,0.011273212 L16.0540424,1.41704274 L9.80494236,1.41704274 L9.80494236,4.17559771 L16.0540424,4.17559771 L16.0540424,5.83050523 L8.78120296,5.83050523 L8.78120296,8.58906019 L13.2518022,8.58906019 C13.2518022,8.58906019 13.5219395,11.1976814 9.05134031,12.3757321 L9.05134031,12.3757321 L9.53480501,15.4612102 C9.53480501,15.4612102 16.0540424,14.3068333 16.0540424,8.58906019 L16.0540424,8.58906019 L18.8551233,8.58906019 L18.8551233,12.2754005 C18.8551233,13.5639286 19.9774106,14.6078281 21.3594009,14.6078281 L21.3594009,14.6078281 L24.5384421,14.6078281 C25.9215917,14.6078281 27.0427197,13.5639286 27.0427197,12.2754005 L27.0427197,12.2754005 L27.0427197,10.1312356 L24.053818,10.1312356 L24.053818,11.6745383 L21.8985162,11.6745383 L21.8985162,8.58906019 L26.6809907,8.58906019 L26.6809907,5.83050523 L18.8551233,5.83050523 L18.8551233,4.17559771 L25.3732013,4.17559771 L25.3732013,1.41704274 L18.8551233,1.41704274 L18.8551233,0.011273212 L16.0540424,0.011273212 Z M0,0.639191118 L0,24.1145277 L3.47468514,24.1145277 L3.47468514,18.9220863 L5.52448272,18.9220863 C6.8914009,18.9220863 7.9997756,17.8894601 7.9997756,16.6178418 L7.9997756,16.6178418 L7.9997756,0.639191118 L0,0.639191118 Z M3.393528,16.1646586 L5.38651557,16.1646586 L5.38651557,3.17228185 L3.393528,3.17228185 L3.393528,16.1646586 Z M111.070508,1.01458908 L111.029929,4.70205671 C111.029929,7.11001478 109.292007,7.44821114 109.292007,7.44821114 L109.292007,7.44821114 L109.292007,10.2698961 C115.028657,10.2698961 114.059409,3.61080979 114.059409,3.61080979 L114.059409,3.61080979 L118.342188,3.61080979 L118.342188,7.47526685 C118.342188,8.76830426 119.470272,9.81896762 120.860378,9.81896762 L120.860378,9.81896762 L124,9.81896762 L124,7.37268062 L121.29167,7.37268062 L121.29167,1.01458908 L111.070508,1.01458908 Z M98.0192795,3.61080979 L107.716399,3.61080979 L107.716399,1.01458908 L98.0192795,1.01458908 L98.0192795,3.61080979 Z M97.0082934,7.14721638 L108.160444,7.14721638 L108.160444,4.70205671 L97.0082934,4.70205671 L97.0082934,7.14721638 Z M54.6257141,5.07858199 L54.6257141,7.7492059 L45.3726403,7.7492059 L45.3726403,9.89337082 L54.6257141,9.89337082 L54.6257141,19.8904552 C54.6257141,20.9343546 53.7155947,21.7821002 52.5933073,21.7821002 L52.5933073,21.7821002 L47.2728769,21.7821002 L47.2728769,23.9623393 L54.6118014,23.9623393 C56.2048002,23.9623393 57.4951988,22.760615 57.4951988,21.2804422 L57.4951988,21.2804422 L57.4951988,9.93169974 L59.4336952,9.93169974 L59.4336952,7.7492059 L57.4534609,7.7492059 L57.4534609,5.07858199 L54.6257141,5.07858199 Z M98.0192795,10.9102145 L107.717558,10.9102145 L107.717558,8.20013438 L98.0192795,8.20013438 L98.0192795,10.9102145 Z M109.292007,11.5854799 C109.979524,15.2537831 111.651361,17.8376033 113.614204,19.6604817 L113.614204,19.6604817 C111.094855,20.9760655 108.968538,20.9535191 108.968538,20.9535191 L108.968538,20.9535191 L108.968538,23.9736126 C111.977149,23.9736126 114.424616,23.0413179 116.397894,21.6930418 L116.397894,21.6930418 C119.982721,23.7447664 123.514217,23.9736126 123.514217,23.9736126 L123.514217,23.9736126 L123.514217,20.991848 C121.637168,20.7066357 120.113732,20.1903226 118.875506,19.5691686 L118.875506,19.5691686 C122.242368,16.0090883 123.514217,11.5854799 123.514217,11.5854799 L123.514217,11.5854799 L109.292007,11.5854799 Z M113.817097,14.2019924 L119.029705,14.2019924 C118.199583,15.7080935 117.246566,16.8793803 116.263405,17.7880012 L116.263405,17.7880012 C114.319112,16.0057063 113.817097,14.2019924 113.817097,14.2019924 L113.817097,14.2019924 Z M98.0192795,14.4454938 L107.717558,14.4454938 L107.717558,11.9992068 L98.0192795,11.9992068 L98.0192795,14.4454938 Z M44.7268613,13.6552417 C47.5557675,15.9876692 49.5742616,20.1260653 49.5742616,20.1260653 L49.5742616,20.1260653 L52.0402794,18.2445662 C51.0710312,16.288664 47.3934532,12.0758647 47.3934532,12.0758647 L47.3934532,12.0758647 C47.3934532,12.0758647 44.5552719,13.5143265 44.7268613,13.6552417 L44.7268613,13.6552417 Z M16.0540424,13.7691011 L16.0540424,16.4013961 L10.3336232,16.4013961 L10.3336232,19.1103489 L16.0540424,19.1103489 L16.0540424,21.7821002 L7.83746131,21.7821002 L7.83746131,24.1145277 L27.312857,24.1145277 L27.312857,21.7821002 L19.0290314,21.7821002 L19.0290314,19.1103489 L24.8479987,19.1103489 L24.8479987,16.4013961 L19.0290314,16.4013961 L19.0290314,13.7691011 L16.0540424,13.7691011 Z M98.0192795,23.9736126 L107.717558,23.9736126 L107.717558,15.7633323 L98.0192795,15.7633323 L98.0192795,23.9736126 Z M101.009341,21.518307 L104.726338,21.518307 L104.726338,18.0574309 L101.009341,18.0574309 L101.009341,21.518307 Z" id="path-3"></path>
        <path d="M43.9778968,1.15516501 L41.7634662,1.15516501 C41.6046301,0.736971506 41.4353595,0.36740515 41.2568137,0.0399823251 L41.2568137,0.0399823251 L40.701467,0.139397836 C40.8892878,0.437644369 41.0678335,0.776953831 41.2266697,1.15516501 L41.2266697,1.15516501 L38.8847064,1.15516501 L38.8847064,1.65224257 L42.597066,1.65224257 L42.597066,2.75769983 L39.4296186,2.75769983 L39.4296186,3.23532652 L42.597066,3.23532652 L42.597066,4.34942861 L38.5461651,4.34942861 L38.5461651,4.86703763 L47.183604,4.86703763 L47.183604,4.34942861 L43.1338625,4.34942861 L43.1338625,3.23532652 L46.3395697,3.23532652 L46.3395697,2.75769983 L43.1338625,2.75769983 L43.1338625,1.65224257 L46.8473816,1.65224257 L46.8473816,1.15516501 L44.5332436,1.15516501 C44.7314989,0.825580983 44.890335,0.467901264 44.9900424,0.0799646502 L44.9900424,0.0799646502 L44.4346956,0 C44.3338289,0.398742648 44.1761521,0.776953831 43.9778968,1.15516501 L43.9778968,1.15516501 Z M119.055211,0.129672406 C119.185063,0.398742648 119.313755,0.698069784 119.432012,1.03521804 L119.432012,1.03521804 L115.412415,1.03521804 L115.412415,2.67665457 L115.946893,2.67665457 L115.946893,1.54310163 L123.175675,1.54310163 L123.175675,2.67665457 L123.711312,2.67665457 L123.711312,1.03521804 L119.959534,1.03521804 C119.849392,0.666732286 119.731134,0.329584031 119.590848,0.0302568947 L119.590848,0.0302568947 L119.055211,0.129672406 Z M101.906707,0.289601706 C102.342636,0.61702453 102.681178,0.926077097 102.939721,1.20487277 L102.939721,1.20487277 L103.336232,0.926077097 C103.098557,0.666732286 102.750741,0.378211183 102.303217,0.0399823251 L102.303217,0.0399823251 L101.906707,0.289601706 Z M80.6864324,0.158848697 C80.7965742,0.36740515 80.8951222,0.59757367 80.984395,0.846112447 L80.984395,0.846112447 L77.1526184,0.846112447 L77.1526184,2.36868261 L77.6604303,2.36868261 L77.6604303,1.29456285 L84.7674773,1.29456285 L84.7674773,2.36868261 L85.2741298,2.36868261 L85.2741298,0.846112447 L81.5304667,0.846112447 C81.4319187,0.558671948 81.3333707,0.299327137 81.2232289,0.0594331859 L81.2232289,0.0594331859 L80.6864324,0.158848697 Z M100.36704,0.139397836 C100.477182,0.68726375 100.595439,1.17461588 100.734566,1.60361542 L100.734566,1.60361542 L99.692276,1.78191498 L99.7606799,2.2703477 L100.893402,2.07043608 C101.003544,2.36868261 101.122961,2.61830199 101.260928,2.83658387 L101.260928,2.83658387 C101.340925,2.95653085 101.430198,3.08512265 101.528746,3.21587566 L101.528746,3.21587566 C100.914271,3.45360841 100.229073,3.66324546 99.4638767,3.83073899 L99.4638767,3.83073899 L99.6632914,4.28026999 C100.466747,4.10088983 101.191364,3.86207648 101.847578,3.58328081 L101.847578,3.58328081 C102.024964,3.76266097 102.213944,3.92150967 102.433069,4.06090751 L102.433069,4.06090751 C102.859723,4.32997775 103.266669,4.46937558 103.64347,4.46937558 L103.64347,4.46937558 C104.012155,4.46937558 104.328668,4.11169586 104.606921,3.40390065 L104.606921,3.40390065 L104.189541,3.12510498 C103.991286,3.6740515 103.793031,3.95176656 103.593616,3.97121742 L103.593616,3.97121742 C103.336232,3.97121742 103.01856,3.85127045 102.641759,3.62326314 L102.641759,3.62326314 C102.522342,3.54329849 102.4122,3.46441444 102.313652,3.36391832 L102.313652,3.36391832 C102.988415,3.01596404 103.554197,2.60749596 104.030705,2.13959469 L104.030705,2.13959469 L103.663179,1.86187963 C103.20638,2.29952399 102.651034,2.67665457 101.985545,3.00623861 L101.985545,3.00623861 C101.867288,2.86792137 101.746711,2.7177175 101.649323,2.54806277 L101.649323,2.54806277 C101.549615,2.38921408 101.470777,2.20010848 101.390779,1.980746 L101.390779,1.980746 L104.467794,1.43396069 L104.388956,0.945527958 L101.221509,1.51392534 C101.092816,1.10545726 100.97224,0.627830564 100.874852,0.0799646502 L100.874852,0.0799646502 L100.36704,0.139397836 Z M24.7436538,0.100496114 L24.7436538,2.37948864 C24.7436538,3.43307694 24.8027825,4.3796855 24.9430685,5.21499192 L24.9430685,5.21499192 L21.7848962,5.21499192 L21.7848962,5.71315007 L22.7877666,5.71315007 L22.768057,6.08811945 C22.7495068,6.38744658 22.7240003,6.65111381 22.6880592,6.87695992 L22.6880592,6.87695992 C22.5593672,7.64418832 22.1419876,8.26013224 21.4382392,8.71830808 L21.4382392,8.71830808 L21.7640272,9.13650159 C22.5396576,8.60916714 23.0057315,7.93270942 23.144858,7.11685387 L23.144858,7.11685387 L23.1680458,6.96665 C23.1726833,6.94071552 23.1784803,6.91370043 23.1842772,6.88776595 L23.1842772,6.88776595 C23.641076,7.14711076 24.0990342,7.46480816 24.5453984,7.8624702 L24.5453984,7.8624702 L24.813217,7.44535729 C24.3367086,7.04769525 23.8103466,6.70838579 23.2341309,6.41986469 L23.2341309,6.41986469 C23.2549999,6.21022763 23.2654343,5.97141428 23.2747095,5.71315007 L23.2747095,5.71315007 L25.0311819,5.71315007 L25.0706011,5.90225567 C25.2294372,6.59816424 25.438127,7.18601248 25.707105,7.68309004 L25.707105,7.68309004 C25.190018,8.08183269 24.5952521,8.40061068 23.9100539,8.65995549 L23.9100539,8.65995549 L24.1187437,9.12677616 C24.8027825,8.86851195 25.4184174,8.53892792 25.9656485,8.12073441 L25.9656485,8.12073441 L26.0073864,8.18449001 L26.0340523,8.22123052 C26.4514319,8.7885473 26.8873617,9.0770684 27.3453199,9.08679383 L27.3453199,9.08679383 C27.7418305,9.08679383 28.0502277,8.55945938 28.248483,7.50587108 L28.248483,7.50587108 L27.8218283,7.22599481 C27.6722673,8.12073441 27.4937215,8.57891024 27.2943068,8.57891024 L27.2943068,8.57891024 C27.0067787,8.57891024 26.6891064,8.3411775 26.3424495,7.8624702 L26.3424495,7.8624702 C26.3331744,7.85382537 26.3227399,7.84301934 26.3227399,7.82248787 L26.3227399,7.82248787 C26.7888138,7.40429437 27.1969183,6.91694224 27.5331407,6.3593509 L27.5331407,6.3593509 L27.1470646,6.07082979 C26.8479426,6.55926252 26.4908511,6.99798749 26.0734715,7.37511807 L26.0734715,7.37511807 C25.8555066,6.91694224 25.6758015,6.36907633 25.5378344,5.71315007 L25.5378344,5.71315007 L28.1789197,5.71315007 L28.1789197,5.21499192 L27.3348854,5.21499192 C27.1864838,4.87784366 27.0264883,4.58824196 26.8479426,4.34942861 L26.8479426,4.34942861 L26.4212879,4.50935791 C26.5905585,4.72763979 26.7401195,4.96753374 26.8676521,5.21499192 L26.8676521,5.21499192 L25.4485615,5.21499192 C25.330304,4.3796855 25.2595813,3.43307694 25.2595813,2.37948864 L25.2595813,2.37948864 L25.2595813,0.100496114 L24.7436538,0.100496114 Z M20.3553711,0.100496114 L20.3553711,2.11906323 L19.3130814,2.11906323 L19.3130814,2.62694682 L20.325227,2.62694682 C20.0968276,3.78211183 19.6991576,4.82813591 19.1333763,5.74232637 L19.1333763,5.74232637 L19.3525006,6.28046685 C19.7698802,5.5629462 20.0968276,4.75789669 20.3553711,3.87180191 L20.3553711,3.87180191 L20.3553711,9.13650159 L20.8620235,9.13650159 L20.8620235,3.82209416 L21.0254972,4.07603595 C21.1970866,4.34510619 21.3930231,4.66280359 21.6167849,5.03669236 L21.6167849,5.03669236 L21.8938786,4.62822428 C21.5367872,4.11169586 21.1994053,3.65352003 20.8620235,3.25477738 L20.8620235,3.25477738 L20.8620235,2.62694682 L21.6956233,2.62694682 L21.6956233,2.11906323 L20.8620235,2.11906323 L20.8620235,0.100496114 L20.3553711,0.100496114 Z M26.4954887,0.59757367 C26.063037,1.49663568 25.7569587,1.98506841 25.5679785,2.07043608 L25.5679785,2.07043608 L25.6468168,2.41839037 L26.4525913,2.32870029 C26.6241807,2.30924942 26.7888138,2.28979856 26.9476499,2.2703477 L26.9476499,2.2703477 L26.7517134,2.57507786 C26.2728862,3.29800152 25.9123166,3.70430839 25.6665264,3.79183726 L25.6665264,3.79183726 L25.7569587,4.17112905 C26.460707,4.0911644 27.0960515,4.00147432 27.6629922,3.90205881 L27.6629922,3.90205881 C27.7116864,4.07171354 27.7626995,4.2500131 27.8113938,4.42939326 L27.8113938,4.42939326 L28.1986293,4.33862257 C28.0200836,3.69242175 27.8311034,3.12510498 27.6131385,2.64747828 L27.6131385,2.64747828 L27.2548877,2.75769983 C27.354595,3.00623861 27.4438679,3.26558342 27.5435752,3.53357306 L27.5435752,3.53357306 L26.352884,3.73240408 C26.7598291,3.34338686 27.3348854,2.48862959 28.0792124,1.16489044 L28.0792124,1.16489044 L27.6722673,1.03521804 C27.5134311,1.32373914 27.354595,1.60361542 27.2061934,1.86187963 L27.2061934,1.86187963 L26.1731789,1.99155203 C26.4120128,1.67169343 26.7401195,1.10545726 27.1366301,0.289601706 L27.1366301,0.289601706 L26.708816,0.139397836 L26.4954887,0.59757367 Z M23.0300786,0.481949108 C22.561686,1.50852232 22.2324198,2.06071065 22.0341645,2.15040073 L22.0341645,2.15040073 L22.122278,2.51888648 L23.1413799,2.40326192 C23.2213776,2.3956977 23.2978972,2.38705287 23.3732574,2.37948864 L23.3732574,2.37948864 L23.186596,2.6842188 C22.7019719,3.45576961 22.3298084,3.88368855 22.0828588,3.97121742 L22.0828588,3.97121742 L22.1721317,4.35915404 L22.732116,4.2824312 C23.1819584,4.2186756 23.5970193,4.15167819 23.9784578,4.08035837 L23.9784578,4.08035837 L24.0665713,4.4434411 C24.080484,4.5071967 24.095556,4.5709523 24.1083093,4.63794971 L24.1083093,4.63794971 L24.4758352,4.5385342 C24.3367086,3.91178424 24.1685974,3.35419289 23.9888923,2.85711534 L23.9888923,2.85711534 L23.641076,2.97490111 C23.7210737,3.21587566 23.7999121,3.45360841 23.8706348,3.71295322 L23.8706348,3.71295322 L22.768057,3.90205881 C23.1750021,3.4827847 23.7604929,2.5880451 24.5152544,1.19406674 L24.5152544,1.19406674 L24.1187437,1.0557495 C23.9390386,1.3734469 23.7802025,1.68141886 23.6213664,1.96129514 L23.6213664,1.96129514 L23.0509476,2.03909858 C22.9164586,2.05638823 22.7750133,2.07475849 22.6289305,2.08988694 L22.6289305,2.08988694 C22.8677643,1.77110894 23.1842772,1.17461588 23.6016568,0.299327137 L23.6016568,0.299327137 L23.1750021,0.158848697 L23.0300786,0.481949108 Z M4.42770189,0.169654731 L4.42770189,2.03045375 L2.06486962,2.03045375 C2.23298084,1.54310163 2.38254186,1.01468657 2.50079942,0.45709523 L2.50079942,0.45709523 L1.95588717,0.349034892 C1.61850532,2.06071065 0.962291848,3.42443211 0,4.41966783 L0,4.41966783 L0.357091433,4.8573122 C0.972726338,4.23920706 1.4689443,3.46441444 1.86545492,2.54806277 L1.86545492,2.54806277 L4.42770189,2.54806277 L4.42770189,5.04641779 L1.43880022,5.04641779 L1.43880022,5.57375224 L4.42770189,5.57375224 L4.42770189,8.29146974 L0.237674493,8.29146974 L0.237674493,8.82852962 L8.93540153,8.82852962 L8.93540153,8.29146974 L4.95406393,8.29146974 L4.95406393,5.57375224 L8.10180173,5.57375224 L8.10180173,5.04641779 L4.95406393,5.04641779 L4.95406393,2.54806277 L8.30005703,2.54806277 L8.30005703,2.03045375 L4.95406393,2.03045375 L4.95406393,0.169654731 L4.42770189,0.169654731 Z M58.3960431,0.666732286 L58.6638617,4.11169586 L57.8986658,4.11169586 L57.8986658,5.62345999 L58.4157527,5.62345999 L58.4157527,4.5385342 L65.6630857,4.5385342 L65.6630857,5.63426603 L66.1790132,5.63426603 L66.1790132,4.11169586 L65.4451208,4.11169586 L65.6723608,0.517609019 L63.4787991,0.517609019 L63.4787991,0.964978819 L65.1564332,0.964978819 L65.1065795,1.79164041 L63.5390873,1.79164041 L63.5390873,2.18930245 L65.0775948,2.18930245 L65.0265818,2.92627396 L63.4996681,2.92627396 L63.4996681,3.33474203 L64.9975971,3.33474203 L64.9489028,4.11169586 L59.1600797,4.11169586 L59.089357,3.33474203 L60.6000393,3.33474203 L60.6000393,2.92627396 L59.0603723,2.92627396 L59.0024029,2.18930245 L60.5791703,2.18930245 L60.5791703,1.79164041 L58.9710995,1.79164041 L58.9015362,1.03521804 L59.2748591,0.961737009 C59.869625,0.839628827 60.3090329,0.725084869 60.5896048,0.61702453 L60.5896048,0.61702453 L60.4122185,0.190186195 C59.8649874,0.387936614 59.1902237,0.547865914 58.3960431,0.666732286 L58.3960431,0.666732286 Z M62.1084028,0.926077097 C61.8208746,0.736971506 61.5124774,0.547865914 61.1855301,0.36740515 L61.1855301,0.36740515 L60.9177115,0.627830564 C61.2261087,0.806130122 61.5124774,0.985510283 61.7907305,1.16489044 L61.7907305,1.16489044 C61.5032023,1.36480207 61.1750956,1.54310163 60.799454,1.68141886 L60.799454,1.68141886 L61.0278534,2.02072832 C61.4533487,1.8208167 61.8208746,1.61334085 62.1292717,1.39397836 L62.1292717,1.39397836 C62.4063654,1.59280938 62.6649089,1.78191498 62.8828738,1.980746 L62.8828738,1.980746 L63.1611269,1.69222489 C62.9431619,1.51392534 62.7043281,1.33346457 62.446944,1.15516501 L62.446944,1.15516501 C62.6451993,0.964978819 62.8643236,0.736971506 63.0915636,0.467901264 L63.0915636,0.467901264 L62.7541817,0.269070242 C62.5559264,0.506802986 62.3472366,0.727246075 62.1084028,0.926077097 L62.1084028,0.926077097 Z M96.3868615,0.567316775 L96.3868615,3.51412219 L97.7572579,3.51412219 L97.7572579,7.91217795 C97.4581358,7.99214261 97.141623,8.07102665 96.8227913,8.15207191 L96.8227913,8.15207191 L96.8227913,4.60877342 L96.3265734,4.60877342 L96.3265734,8.26013224 L95.9300627,8.35090293 L96.0587548,8.87715677 C97.3097342,8.58971627 98.4018775,8.28066371 99.315475,7.95324088 L99.315475,7.95324088 L99.315475,7.42482583 C98.9780932,7.54477281 98.6210017,7.65391375 98.2627509,7.76305469 L98.2627509,7.76305469 L98.2627509,5.76285783 L99.4441671,5.76285783 L99.4441671,5.26578028 L98.2627509,5.26578028 L98.2627509,3.51412219 L99.2760558,3.51412219 L99.2760558,0.567316775 L96.3868615,0.567316775 Z M96.9016297,3.00623861 L98.7694034,3.00623861 L98.7694034,1.08492579 L96.9016297,1.08492579 L96.9016297,3.00623861 Z M78.6725758,1.88133049 L78.5241742,2.84738991 L77.0134919,2.84738991 L77.0134919,3.30556574 L78.4534515,3.30556574 L78.3050499,4.25973853 L83.7553318,4.25973853 L83.8643142,3.30556574 L85.4236908,3.30556574 L85.4236908,2.84738991 L83.9141679,2.84738991 L84.0231504,1.88133049 L78.6725758,1.88133049 Z M81.5722046,2.23901021 L83.525773,2.23901021 L83.427225,2.90574249 L81.4713379,2.90574249 L81.5722046,2.23901021 Z M79.1282152,2.23901021 L81.0841024,2.23901021 L80.984395,2.90574249 L79.0087983,2.90574249 L79.1282152,2.23901021 Z M81.4122091,3.26558342 L83.3785308,3.26558342 L83.2892579,3.91178424 L81.3136611,3.91178424 L81.4122091,3.26558342 Z M78.9508289,3.26558342 L80.9264256,3.26558342 L80.8267183,3.91178424 L78.8302525,3.91178424 L78.9508289,3.26558342 Z M62.1686909,2.72744293 C61.8904379,2.54806277 61.6017503,2.37948864 61.2840781,2.20010848 L61.2840781,2.20010848 L61.0069844,2.46809812 C61.304947,2.62694682 61.5820407,2.79768215 61.8417436,2.97490111 L61.8417436,2.97490111 C61.5623311,3.17481273 61.2365432,3.34338686 60.8782923,3.4827847 L60.8782923,3.4827847 L61.0962572,3.83073899 C61.5229119,3.63298857 61.8904379,3.42443211 62.1872411,3.20506963 L62.1872411,3.20506963 C62.4956383,3.41362608 62.7634568,3.62326314 63.0011313,3.82209416 L63.0011313,3.82209416 L63.2909783,3.54329849 C63.0521444,3.34338686 62.7936009,3.15536187 62.5060728,2.95653085 L62.5060728,2.95653085 C62.7147626,2.75769983 62.9327275,2.52753131 63.1518517,2.25954167 L63.1518517,2.25954167 L62.823745,2.05098522 C62.6243303,2.28979856 62.4063654,2.51888648 62.1686909,2.72744293 L62.1686909,2.72744293 Z M116.571803,2.64747828 L116.571803,3.15536187 L119.501575,3.15536187 C119.11434,3.39309462 118.687685,3.61353771 118.230886,3.81236873 L118.230886,3.81236873 C117.48656,4.13006612 116.622816,4.39913636 115.639655,4.62822428 L115.639655,4.62822428 L115.928342,5.07559408 C117.000776,4.77734755 117.88423,4.45965015 118.598412,4.14087216 L118.598412,4.14087216 L118.926519,3.98094286 C119.09579,4.16140362 119.253466,4.36996007 119.403027,4.58824196 L119.403027,4.58824196 C118.48943,5.32521346 117.178162,5.92170653 115.480819,6.37988236 L115.480819,6.37988236 L115.739362,6.84778362 C117.396127,6.36907633 118.69812,5.7531324 119.640702,4.99671003 L119.640702,4.99671003 C119.779829,5.26578028 119.899245,5.55322077 119.988518,5.86227334 L119.988518,5.86227334 C118.916085,6.78835044 117.377577,7.54477281 115.352127,8.14126587 L115.352127,8.14126587 L115.621105,8.60916714 C117.507428,8.03212493 119.005357,7.29515342 120.097501,6.38960779 L120.097501,6.38960779 C120.13692,6.59816424 120.157789,6.82725216 120.167064,7.07687154 L120.167064,7.07687154 C120.167064,7.7338784 120.067357,8.1812482 119.888811,8.41141672 L119.888811,8.41141672 C119.731134,8.58971627 119.333464,8.67832575 118.718989,8.68913179 L118.718989,8.68913179 L118.2819,8.68913179 L118.459286,9.15703305 L118.787393,9.15703305 C119.630268,9.15703305 120.157789,8.98737832 120.375754,8.66860032 L120.375754,8.66860032 C120.574009,8.37035379 120.682992,7.83329391 120.682992,7.07687154 L120.682992,7.07687154 C120.672557,6.73864268 120.634297,6.40905865 120.574009,6.09136126 L120.574009,6.09136126 C121.34848,7.04769525 122.401204,7.85382537 123.711312,8.51947705 L123.711312,8.51947705 L124,8.03212493 C122.620329,7.37511807 121.517751,6.57871338 120.702701,5.62345999 L120.702701,5.62345999 C121.637168,5.26578028 122.480043,4.72763979 123.225529,4.02200578 L123.225529,4.02200578 L122.858003,3.65352003 C122.082373,4.36996007 121.268482,4.89729452 120.395463,5.23552338 L120.395463,5.23552338 C120.375754,5.21499192 120.365319,5.20526649 120.356044,5.18581562 L120.356044,5.18581562 L120.316625,5.24524881 C120.097501,4.70710833 119.770553,4.21003077 119.333464,3.75293554 L119.333464,3.75293554 C119.630268,3.57355538 119.949099,3.37472436 120.265612,3.15536187 L120.265612,3.15536187 L122.549606,3.15536187 L122.549606,2.64747828 L116.571803,2.64747828 Z M100.695146,4.34942861 C100.793694,4.985904 100.914271,5.53376991 101.052238,6.01139661 L101.052238,6.01139661 L99.5937281,6.33990004 L99.6737258,6.82725216 L101.191364,6.47929787 C101.291072,6.7775444 101.390779,7.02716379 101.499762,7.24544567 L101.499762,7.24544567 C101.5786,7.39564954 101.658598,7.54477281 101.757146,7.68309004 L101.757146,7.68309004 C101.151945,7.98241717 100.456313,8.23095595 99.6737258,8.42978697 L99.6737258,8.42978697 L99.8719812,8.88796281 C100.675437,8.66860032 101.398895,8.40061068 102.056268,8.08183269 L102.056268,8.08183269 C102.204669,8.26013224 102.37394,8.42978697 102.561761,8.56918481 L102.561761,8.56918481 C102.939721,8.85878652 103.296813,9.00790978 103.64347,9.00790978 L103.64347,9.00790978 C104.051574,9.00790978 104.407506,8.54973395 104.726338,7.64418832 L104.726338,7.64418832 L104.289249,7.35458661 C104.071284,8.10128355 103.83245,8.47949473 103.593616,8.50002619 L103.593616,8.50002619 C103.366376,8.50002619 103.088123,8.37035379 102.750741,8.12073441 L102.750741,8.12073441 C102.651034,8.04185036 102.561761,7.95324088 102.482922,7.85382537 L102.482922,7.85382537 C103.156527,7.45400212 103.733902,6.97745603 104.209251,6.42959012 L104.209251,6.42959012 L103.822015,6.14214962 C103.386085,6.63922717 102.840014,7.07687154 102.1838,7.45400212 L102.1838,7.45400212 C102.085252,7.30487885 101.985545,7.13738533 101.897432,6.95692457 L101.897432,6.95692457 C101.817434,6.78835044 101.746711,6.58951942 101.678307,6.36907633 L101.678307,6.36907633 L104.576777,5.71315007 L104.497938,5.22579795 L101.539181,5.90225567 C101.419764,5.44407983 101.310781,4.90701995 101.212233,4.28891482 L101.212233,4.28891482 L100.695146,4.34942861 Z M101.985545,4.56879109 C102.402925,4.88648849 102.721756,5.18581562 102.958271,5.45380526 L102.958271,5.45380526 L103.375651,5.16528416 C103.148411,4.92755142 102.819145,4.64767514 102.382056,4.32997775 L102.382056,4.32997775 L101.985545,4.56879109 Z M78.2946154,7.88300166 L84.1425673,7.88300166 L84.1425673,4.76762212 L78.2946154,4.76762212 L78.2946154,7.88300166 Z M78.8001085,5.70342464 L83.6359148,5.70342464 L83.6359148,5.12530184 L78.8001085,5.12530184 L78.8001085,5.70342464 Z M78.8001085,6.58951942 L83.6359148,6.58951942 L83.6359148,6.03192807 L78.8001085,6.03192807 L78.8001085,6.58951942 Z M78.8001085,7.51451591 L83.6359148,7.51451591 L83.6359148,6.92666767 L78.8001085,6.92666767 L78.8001085,7.51451591 Z M42.4869242,6.08163583 L38.784999,6.08163583 L38.784999,6.59816424 L42.2492497,6.59816424 C42.0509944,6.93747371 41.8028854,7.22599481 41.5049227,7.48533962 L41.5049227,7.48533962 C40.8498686,8.0223995 39.7971445,8.42978697 38.3282002,8.70966325 L38.3282002,8.70966325 L38.5461651,9.22619167 C40.1646705,8.88796281 41.2962329,8.42978697 41.9420119,7.84301934 L41.9420119,7.84301934 C42.3292474,7.49506505 42.6364852,7.07687154 42.8556095,6.59816424 L42.8556095,6.59816424 L46.956364,6.59816424 L46.956364,6.08163583 L43.0538648,6.08163583 C43.1338625,5.82337162 43.2034258,5.55322077 43.242845,5.25497424 L43.242845,5.25497424 L42.7060485,5.20526649 C42.6573542,5.51323845 42.5877909,5.80284016 42.4869242,6.08163583 L42.4869242,6.08163583 Z M59.2296429,5.26578028 L59.2296429,5.70342464 L63.7756024,5.70342464 L63.4196703,5.83309705 C63.0243191,5.97357549 62.5165073,6.14539143 61.8904379,6.33990004 L61.8904379,6.33990004 L61.8904379,6.99798749 L57.7201201,6.99798749 L57.7201201,7.45400212 L61.8904379,7.45400212 L61.8904379,8.30119517 C61.8904379,8.55945938 61.7605864,8.68913179 61.5124774,8.68913179 L61.5124774,8.68913179 C61.1252419,8.68913179 60.7669911,8.67832575 60.4412031,8.66860032 L60.4412031,8.66860032 L60.5698952,9.12677616 L61.6817481,9.12677616 C62.1478219,9.12677616 62.3866558,8.89768824 62.3866558,8.46004387 L62.3866558,8.46004387 L62.3866558,7.45400212 L66.3679934,7.45400212 L66.3679934,6.99798749 L62.3866558,6.99798749 L62.3866558,6.57871338 C63.2295307,6.29127288 63.9854516,6.00167118 64.6602152,5.70342464 L64.6602152,5.70342464 L64.6602152,5.26578028 L59.2296429,5.26578028 Z M43.093284,7.50587108 C44.4636803,7.92298399 45.7934981,8.50975162 47.1047656,9.24672313 L47.1047656,9.24672313 L47.4120034,8.76801583 C46.2016026,8.10128355 44.8613503,7.53504737 43.3912466,7.06714611 L43.3912466,7.06714611 L43.093284,7.50587108 Z M77.1526184,8.76801583 L77.3902929,9.19701537 C78.7212701,8.95712142 79.7438501,8.65995549 80.458033,8.29146974 L80.458033,8.29146974 L80.1913738,7.93270942 C79.4969005,8.27093828 78.4824362,8.54973395 77.1526184,8.76801583 L77.1526184,8.76801583 Z M82.027844,8.30119517 C83.0805681,8.51947705 84.0822791,8.81772359 85.0550055,9.19701537 L85.0550055,9.19701537 L85.2254355,8.75937101 C84.2619842,8.40061068 83.2579544,8.13154044 82.2168242,7.95324088 L82.2168242,7.95324088 L82.027844,8.30119517 Z" id="path-5"></path>
    </defs>
    <g id="全局樣式" stroke="none" stroke-width="1" fill="none" fill-rule="evenodd">
        <g id="Group-41">
            <rect id="Rectangle" x="0" y="0" width="125" height="125"></rect>
            <g id="陸府建設LOGO(245x60)" transform="translate(0.000000, 2.000000)">
                <g id="Group-3" transform="translate(36.342169, 0.000000)">
                    <mask id="mask-2" fill="white">
                        <use xlink:href="#path-1"></use>
                    </mask>
                    <use id="Clip-2" fill="#8D1E22" xlink:href="#path-1"></use>
                </g>
                <g id="Group-2" transform="translate(0.000000, 80.454172)">
                    <g id="Group-6">
                        <mask id="mask-4" fill="white">
                            <use xlink:href="#path-3"></use>
                        </mask>
                        <g id="Clip-5"></g>
                        <polygon id="Fill-4" fill="#000000" mask="url(#mask-4)" points="-4.95986087 28.9360805 128.958701 28.9360805 128.958701 -4.82268008 -4.95986087 -4.82268008"></polygon>
                    </g>
                    <g id="Group-9" transform="translate(0.000000, 30.299105)">
                        <mask id="mask-6" fill="white">
                            <use xlink:href="#path-5"></use>
                        </mask>
                        <g id="Clip-8"></g>
                        <polygon id="Fill-7" fill="#333333" mask="url(#mask-6)" points="-4.95986087 13.8695444 128.958701 13.8695444 128.958701 -4.62174066 -4.95986087 -4.62174066"></polygon>
                    </g>
                </g>
            </g>
        </g>
    </g>
</svg>